<svg xmlns="http://www.w3.org/2000/svg" xmlns:xlink="http://www.w3.org/1999/xlink" xmlns:lucid="lucid" width="1710.6" height="1058"><g transform="translate(-70.39999999999975 -20)" lucid:page-tab-id="0_0"><path d="M0 0h1870.4v1323.2H0z" fill="#fff"/><path d="M1100 552.1h280v219h-280z" stroke="#333" stroke-width="2" fill="#fff"/><path d="M1100 589.7h280m-280 122.9h280" stroke="#333" stroke-width="2" fill="none"/><use xlink:href="#a" transform="matrix(1,0,0,1,1108,560.0999999999999) translate(98.1 14.6)"/><use xlink:href="#b" transform="matrix(1,0,0,1,1112,597.6999999999999) translate(0 24.69999999999999)"/><use xlink:href="#c" transform="matrix(1,0,0,1,1112,597.6999999999999) translate(10.95 24.69999999999999)"/><use xlink:href="#b" transform="matrix(1,0,0,1,1112,597.6999999999999) translate(0 46.29999999999999)"/><use xlink:href="#d" transform="matrix(1,0,0,1,1112,597.6999999999999) translate(10.95 46.29999999999999)"/><use xlink:href="#b" transform="matrix(1,0,0,1,1112,597.6999999999999) translate(0 67.89999999999999)"/><use xlink:href="#e" transform="matrix(1,0,0,1,1112,597.6999999999999) translate(10.95 67.89999999999999)"/><use xlink:href="#b" transform="matrix(1,0,0,1,1112,597.6999999999999) translate(0 89.5)"/><use xlink:href="#f" transform="matrix(1,0,0,1,1112,597.6999999999999) translate(10.95 89.5)"/><use xlink:href="#g" transform="matrix(1,0,0,1,1112,720.5999999999999) translate(0 25.1)"/><use xlink:href="#h" transform="matrix(1,0,0,1,1112,720.5999999999999) translate(15.5 25.1)"/><use xlink:href="#i" transform="matrix(1,0,0,1,1112,720.5999999999999) translate(146.20000000000002 25.1)"/><path d="M292.6 940h194.8v118H292.6z" stroke="#333" stroke-width="2" fill="#fff"/><path d="M292.6 977.6h194.8" stroke="#333" stroke-width="2" fill="none"/><use xlink:href="#j" transform="matrix(1,0,0,1,300.5999999999999,948) translate(49.05 14.6)"/><use xlink:href="#b" transform="matrix(1,0,0,1,304.5999999999999,985.6) translate(0 25.299999999999997)"/><use xlink:href="#k" transform="matrix(1,0,0,1,304.5999999999999,985.6) translate(10.95 25.299999999999997)"/><use xlink:href="#b" transform="matrix(1,0,0,1,304.5999999999999,985.6) translate(0 46.9)"/><use xlink:href="#l" transform="matrix(1,0,0,1,304.5999999999999,985.6) translate(10.95 46.9)"/><path d="M785.2 880H980v97H785.2z" stroke="#333" stroke-width="2" fill="#fff"/><path d="M785.2 917.6H980" stroke="#333" stroke-width="2" fill="none"/><use xlink:href="#m" transform="matrix(1,0,0,1,793.1999999999999,888) translate(71 14.6)"/><use xlink:href="#b" transform="matrix(1,0,0,1,797.1999999999999,925.6) translate(0 25.6)"/><use xlink:href="#l" transform="matrix(1,0,0,1,797.1999999999999,925.6) translate(10.95 25.6)"/><path d="M1020 301.5h140v97h-140z" stroke="#333" stroke-width="2" fill="#fff"/><path d="M1020 339.1h140" stroke="#333" stroke-width="2" fill="none"/><use xlink:href="#n" transform="matrix(1,0,0,1,1028,309.5) translate(27.049999999999997 14.6)"/><use xlink:href="#b" transform="matrix(1,0,0,1,1032,347.1) translate(0 25.6)"/><use xlink:href="#o" transform="matrix(1,0,0,1,1032,347.1) translate(10.95 25.6)"/><path d="M716 40h438.4v85.2H716z" fill="none"/><use xlink:href="#p" transform="matrix(1,0,0,1,720.9999999999999,45) translate(7.52592592592606 44.266666666666666)"/><use xlink:href="#q" transform="matrix(1,0,0,1,720.9999999999999,45) translate(157.0555555555556 44.266666666666666)"/><use xlink:href="#r" transform="matrix(1,0,0,1,720.9999999999999,45) translate(238.87037037037038 44.266666666666666)"/><path d="M90.4 240h600v413h-600z" stroke="#333" stroke-width="2" fill="#fff"/><path d="M90.4 277.6h600m-600 144.5h600" stroke="#333" stroke-width="2" fill="none"/><use xlink:href="#s" transform="matrix(1,0,0,1,98.39999999999975,248) translate(269.575 14.6)"/><use xlink:href="#b" transform="matrix(1,0,0,1,102.39999999999975,285.6) translate(0 24.89999999999999)"/><use xlink:href="#t" transform="matrix(1,0,0,1,102.39999999999975,285.6) translate(10.95 24.89999999999999)"/><use xlink:href="#b" transform="matrix(1,0,0,1,102.39999999999975,285.6) translate(0 46.49999999999999)"/><use xlink:href="#u" transform="matrix(1,0,0,1,102.39999999999975,285.6) translate(10.95 46.49999999999999)"/><use xlink:href="#b" transform="matrix(1,0,0,1,102.39999999999975,285.6) translate(0 68.1)"/><use xlink:href="#v" transform="matrix(1,0,0,1,102.39999999999975,285.6) translate(10.95 68.1)"/><use xlink:href="#b" transform="matrix(1,0,0,1,102.39999999999975,285.6) translate(0 89.70000000000002)"/><use xlink:href="#w" transform="matrix(1,0,0,1,102.39999999999975,285.6) translate(10.95 89.70000000000002)"/><use xlink:href="#x" transform="matrix(1,0,0,1,102.39999999999975,285.6) translate(0 111.30000000000001)"/><use xlink:href="#y" transform="matrix(1,0,0,1,102.39999999999975,285.6) translate(10.95 111.30000000000001)"/><use xlink:href="#g" transform="matrix(1,0,0,1,102.39999999999975,430.1) translate(0 24.70000000000001)"/><use xlink:href="#z" transform="matrix(1,0,0,1,102.39999999999975,430.1) translate(15.5 24.70000000000001)"/><use xlink:href="#g" transform="matrix(1,0,0,1,102.39999999999975,430.1) translate(0 46.30000000000001)"/><use xlink:href="#A" transform="matrix(1,0,0,1,102.39999999999975,430.1) translate(15.5 46.30000000000001)"/><use xlink:href="#g" transform="matrix(1,0,0,1,102.39999999999975,430.1) translate(0 67.90000000000002)"/><use xlink:href="#B" transform="matrix(1,0,0,1,102.39999999999975,430.1) translate(15.5 67.90000000000002)"/><use xlink:href="#g" transform="matrix(1,0,0,1,102.39999999999975,430.1) translate(0 89.50000000000003)"/><use xlink:href="#C" transform="matrix(1,0,0,1,102.39999999999975,430.1) translate(15.5 89.50000000000003)"/><use xlink:href="#D" transform="matrix(1,0,0,1,102.39999999999975,430.1) translate(0 111.10000000000002)"/><use xlink:href="#E" transform="matrix(1,0,0,1,102.39999999999975,430.1) translate(15.5 111.10000000000002)"/><use xlink:href="#D" transform="matrix(1,0,0,1,102.39999999999975,430.1) translate(0 132.70000000000002)"/><use xlink:href="#F" transform="matrix(1,0,0,1,102.39999999999975,430.1) translate(15.5 132.70000000000002)"/><use xlink:href="#g" transform="matrix(1,0,0,1,102.39999999999975,430.1) translate(0 154.3)"/><use xlink:href="#G" transform="matrix(1,0,0,1,102.39999999999975,430.1) translate(15.5 154.3)"/><use xlink:href="#g" transform="matrix(1,0,0,1,102.39999999999975,430.1) translate(0 175.9)"/><use xlink:href="#H" transform="matrix(1,0,0,1,102.39999999999975,430.1) translate(15.5 175.9)"/><use xlink:href="#g" transform="matrix(1,0,0,1,102.39999999999975,430.1) translate(0 197.5)"/><use xlink:href="#I" transform="matrix(1,0,0,1,102.39999999999975,430.1) translate(15.5 197.5)"/><path d="M1460 280h280v140h-280z" stroke="#333" stroke-width="2" fill="#fff"/><path d="M1460 317.6h280" stroke="#333" stroke-width="2" fill="none"/><use xlink:href="#J" transform="matrix(1,0,0,1,1468,288) translate(43.22500000000002 14.6)"/><use xlink:href="#b" transform="matrix(1,0,0,1,1472,325.6) translate(0 25.5)"/><use xlink:href="#K" transform="matrix(1,0,0,1,1472,325.6) translate(10.95 25.5)"/><use xlink:href="#b" transform="matrix(1,0,0,1,1472,325.6) translate(0 47.1)"/><use xlink:href="#L" transform="matrix(1,0,0,1,1472,325.6) translate(10.95 47.1)"/><use xlink:href="#b" transform="matrix(1,0,0,1,1472,325.6) translate(0 68.7)"/><use xlink:href="#M" transform="matrix(1,0,0,1,1472,325.6) translate(10.95 68.7)"/><path d="M896.2 655.47l.7 2.64 1.8 1.8 2.63.7H1098v2H901.07l-3.42-.92-2.53-2.53-.92-3.42v-91h2zm-3.45-209.05l2.53 2.53.92 3.42v91h-2v-90.74l-.7-2.64-1.8-1.8-2.63-.7H722.15v-2h167.18z" fill="#5e5e5e"/><path d="M722.8 446.5l-15.14 14.85-14.85-14.85 14.86-14.85z" fill="#5e5e5e"/><path d="M724.24 446.5l-16.58 16.26-16.26-16.26 16.26-16.26zm-30 0l13.43 13.44 13.72-13.44-13.73-13.44zM1099 662.6h-1.03v-2h1.03z" fill="#5e5e5e"/><g><use xlink:href="#N" transform="matrix(1,0,0,1,733,420.9) translate(0 14.4)"/></g><g><use xlink:href="#O" transform="matrix(1,0,0,1,1063.5,636) translate(0 14.4)"/></g><g><use xlink:href="#P" transform="matrix(1,0,0,1,879.9160493827159,543.3833333333333) translate(0 14.222222222222223)"/></g><path d="M839.92 351H722.15v-2h117.77zm178.08 0H870.48v-2H1018z" fill="#5e5e5e"/><path d="M1019 351h-1.03v-2h1.03zM722.8 350l-15.14 14.85L692.8 350l14.86-14.85z" fill="#5e5e5e"/><path d="M724.24 350l-16.58 16.26L691.4 350l16.26-16.26zm-30 0l13.43 13.44L721.4 350l-13.73-13.44z" fill="#5e5e5e"/><g><use xlink:href="#O" transform="matrix(1,0,0,1,984.5,324.40000000000003) translate(0 14.4)"/></g><g><use xlink:href="#N" transform="matrix(1,0,0,1,733,324.40000000000003) translate(0 14.4)"/></g><g><use xlink:href="#P" transform="matrix(1,0,0,1,839.9160493827159,339.3333333333333) translate(0 14.222222222222223)"/></g><path d="M876.73 765.5l3.42.92 2.53 2.53.92 3.42V878h-2V772.63l-.7-2.64-1.8-1.8-2.63-.7h-171.9v-2zM497.7 763l1.8 1.8 2.63.7h171.9v2H501.86l-3.42-.92-2.53-2.53-.92-3.42v-75.88h2v75.62z" fill="#5e5e5e"/><path d="M883.6 879h-2v-1.03h2zM510.85 670.26L496 685.4l-14.85-15.14L496 655.4z" fill="#5e5e5e"/><path d="M512.26 670.26L496 686.84l-16.26-16.58L496 654zm-29.7 0L496 684l13.44-13.73L496 656.83z" fill="#5e5e5e"/><g><use xlink:href="#O" transform="matrix(1,0,0,1,890.5999999999998,858.2) translate(0 14.4)"/></g><g><use xlink:href="#N" transform="matrix(1,0,0,1,504,687.2) translate(0 14.4)"/></g><g><use xlink:href="#P" transform="matrix(1,0,0,1,674.016049382716,755.8333333333334) translate(0 14.222222222222223)"/></g><path d="M391 938h-2V824.1h2zm0-135.23h-2V684.75h2z" fill="#5e5e5e"/><path d="M391 939h-2v-1.03h2zM404.85 670.26L390 685.4l-14.85-15.14L390 655.4z" fill="#5e5e5e"/><path d="M406.26 670.26L390 686.84l-16.26-16.58L390 654zm-29.7 0L390 684l13.44-13.73L390 656.83z" fill="#5e5e5e"/><g><use xlink:href="#O" transform="matrix(1,0,0,1,398,918.2) translate(0 14.4)"/></g><g><use xlink:href="#N" transform="matrix(1,0,0,1,398,691.2) translate(0 14.4)"/></g><g><use xlink:href="#P" transform="matrix(1,0,0,1,374.71604938271605,802.7738927738928) translate(0 14.222222222222223)"/></g><path d="M1162 350h33c3.3 0 6-2.7 6-6v-99c0-3.3 2.7-6 6-6h387c3.3 0 6 2.7 6 6v9.52" stroke="#5e5e5e" stroke-width="2" fill="none"/><path d="M1162.03 351H1161v-2h1.03z" fill="#5e5e5e"/><path d="M1600 277.04l-12.73-21.52h25.46z" stroke="#5e5e5e" stroke-width="2" fill="#fff"/><path d="M982 928.5h612c3.3 0 6-2.7 6-6V445.48" stroke="#5e5e5e" stroke-width="2" fill="none"/><path d="M982.03 929.5H981v-2h1.03z" fill="#5e5e5e"/><path d="M1600 422.96l12.73 21.52h-25.46z" stroke="#5e5e5e" stroke-width="2" fill="#fff"/><path d="M1766.63 349.1l3.13 1.84 1.24 3.4v699.8l-.92 3.4-2.53 2.54-3.42.92H586.87l-3.42-.92-2.53-2.53-.92-3.42v-49l-.7-2.64-1.8-1.8-2.63-.7H489.4v-2h85.73l3.42.92 2.53 2.53.92 3.42v49l.7 2.64 1.8 1.8 2.63.7h1176.74l2.64-.7 1.8-1.8.7-2.63V354.7l-.87-2.4-2.12-1.25-.6-.05.17-2z" fill="#5e5e5e"/><path d="M489.43 1000h-1.03v-2h1.03z" fill="#5e5e5e"/><path d="M1764.48 362.73L1742.96 350l21.52-12.73z" fill="#fff"/><path d="M1765.48 364.48L1741 350l24.48-14.48zM1744.93 350l18.55 10.97v-21.94z" fill="#5e5e5e"/><path d="M1458 350h-212c-3.3 0-6 2.7-6 6v194.1" stroke="#5e5e5e" stroke-width="2" fill="none"/><path d="M1459 351h-1.03v-2h1.03zM1241 551.1h-2v-1.03h2z" fill="#5e5e5e"/><defs><path fill="#333" d="M24-248c93 1 206-16 204 79-1 75-69 88-152 82V0H24v-248zm52 121c47 0 100 7 100-41 0-47-54-39-100-39v80" id="Q"/><path fill="#333" d="M135-150c-39-12-60 13-60 57V0H25l-1-190h47c2 13-1 29 3 40 6-28 27-53 61-41v41" id="R"/><path fill="#333" d="M110-194c64 0 96 36 96 99 0 64-35 99-97 99-61 0-95-36-95-99 0-62 34-99 96-99zm-1 164c35 0 45-28 45-65 0-40-10-65-43-65-34 0-45 26-45 65 0 36 10 65 43 65" id="S"/><path fill="#333" d="M88-194c31-1 46 15 58 34l-1-101h50l1 261h-48c-2-10 0-23-3-31C134-8 116 4 84 4 32 4 16-41 15-95c0-56 19-97 73-99zm17 164c33 0 40-30 41-66 1-37-9-64-41-64s-38 30-39 65c0 43 13 65 39 65" id="T"/><path fill="#333" d="M85 4C-2 5 27-109 22-190h50c7 57-23 150 33 157 60-5 35-97 40-157h50l1 190h-47c-2-12 1-28-3-38-12 25-28 42-61 42" id="U"/><path fill="#333" d="M190-63c-7 42-38 67-86 67-59 0-84-38-90-98-12-110 154-137 174-36l-49 2c-2-19-15-32-35-32-30 0-35 28-38 64-6 74 65 87 74 30" id="V"/><path fill="#333" d="M115-3C79 11 28 4 28-45v-112H4v-33h27l15-45h31v45h36v33H77v99c-1 23 16 31 38 25v30" id="W"/><g id="a"><use transform="matrix(0.05,0,0,0.05,0,0)" xlink:href="#Q"/><use transform="matrix(0.05,0,0,0.05,12,0)" xlink:href="#R"/><use transform="matrix(0.05,0,0,0.05,19,0)" xlink:href="#S"/><use transform="matrix(0.05,0,0,0.05,29.950000000000003,0)" xlink:href="#T"/><use transform="matrix(0.05,0,0,0.05,40.900000000000006,0)" xlink:href="#U"/><use transform="matrix(0.05,0,0,0.05,51.85,0)" xlink:href="#V"/><use transform="matrix(0.05,0,0,0.05,61.85,0)" xlink:href="#W"/></g><path fill="#333" d="M16-82v-28h88v28H16" id="X"/><use transform="matrix(0.05,0,0,0.05,0,0)" xlink:href="#X" id="b"/><path fill="#333" d="M117-194c89-4 53 116 60 194h-32v-121c0-31-8-49-39-48C34-167 62-67 57 0H25l-1-190h30c1 10-1 24 2 32 11-22 29-35 61-36" id="Y"/><path fill="#333" d="M141-36C126-15 110 5 73 4 37 3 15-17 15-53c-1-64 63-63 125-63 3-35-9-54-41-54-24 1-41 7-42 31l-33-3c5-37 33-52 76-52 45 0 72 20 72 64v82c-1 20 7 32 28 27v20c-31 9-61-2-59-35zM48-53c0 20 12 33 32 33 41-3 63-29 60-74-43 2-92-5-92 41" id="Z"/><path fill="#333" d="M210-169c-67 3-38 105-44 169h-31v-121c0-29-5-50-35-48C34-165 62-65 56 0H25l-1-190h30c1 10-1 24 2 32 10-44 99-50 107 0 11-21 27-35 58-36 85-2 47 119 55 194h-31v-121c0-29-5-49-35-48" id="aa"/><path fill="#333" d="M100-194c63 0 86 42 84 106H49c0 40 14 67 53 68 26 1 43-12 49-29l28 8c-11 28-37 45-77 45C44 4 14-33 15-96c1-61 26-98 85-98zm52 81c6-60-76-77-97-28-3 7-6 17-6 28h103" id="ab"/><path fill="#333" d="M33-154v-36h34v36H33zM33 0v-36h34V0H33" id="ac"/><path fill="#333" d="M185-189c-5-48-123-54-124 2 14 75 158 14 163 119 3 78-121 87-175 55-17-10-28-26-33-46l33-7c5 56 141 63 141-1 0-78-155-14-162-118-5-82 145-84 179-34 5 7 8 16 11 25" id="ad"/><path fill="#333" d="M59-47c-2 24 18 29 38 22v24C64 9 27 4 27-40v-127H5v-23h24l9-43h21v43h35v23H59v120" id="ae"/><path fill="#333" d="M114-163C36-179 61-72 57 0H25l-1-190h30c1 12-1 29 2 39 6-27 23-49 58-41v29" id="af"/><path fill="#333" d="M24-231v-30h32v30H24zM24 0v-190h32V0H24" id="ag"/><path fill="#333" d="M177-190C167-65 218 103 67 71c-23-6-38-20-44-43l32-5c15 47 100 32 89-28v-30C133-14 115 1 83 1 29 1 15-40 15-95c0-56 16-97 71-98 29-1 48 16 59 35 1-10 0-23 2-32h30zM94-22c36 0 50-32 50-73 0-42-14-75-50-75-39 0-46 34-46 75s6 73 46 73" id="ah"/><g id="c"><use transform="matrix(0.05,0,0,0.05,0,0)" xlink:href="#Y"/><use transform="matrix(0.05,0,0,0.05,10,0)" xlink:href="#Z"/><use transform="matrix(0.05,0,0,0.05,20,0)" xlink:href="#aa"/><use transform="matrix(0.05,0,0,0.05,34.95,0)" xlink:href="#ab"/><use transform="matrix(0.05,0,0,0.05,44.95,0)" xlink:href="#ac"/><use transform="matrix(0.05,0,0,0.05,49.95,0)" xlink:href="#ad"/><use transform="matrix(0.05,0,0,0.05,61.95,0)" xlink:href="#ae"/><use transform="matrix(0.05,0,0,0.05,66.95,0)" xlink:href="#af"/><use transform="matrix(0.05,0,0,0.05,72.9,0)" xlink:href="#ag"/><use transform="matrix(0.05,0,0,0.05,76.85000000000001,0)" xlink:href="#Y"/><use transform="matrix(0.05,0,0,0.05,86.85000000000001,0)" xlink:href="#ah"/></g><path fill="#333" d="M96-169c-40 0-48 33-48 73s9 75 48 75c24 0 41-14 43-38l32 2c-6 37-31 61-74 61-59 0-76-41-82-99-10-93 101-131 147-64 4 7 5 14 7 22l-32 3c-4-21-16-35-41-35" id="ai"/><path fill="#333" d="M100-194c62-1 85 37 85 99 1 63-27 99-86 99S16-35 15-95c0-66 28-99 85-99zM99-20c44 1 53-31 53-75 0-43-8-75-51-75s-53 32-53 75 10 74 51 75" id="aj"/><path fill="#333" d="M85-194c31 0 48 13 60 33l-1-100h32l1 261h-30c-2-10 0-23-3-31C134-8 116 4 85 4 32 4 16-35 15-94c0-66 23-100 70-100zm9 24c-40 0-46 34-46 75 0 40 6 74 45 74 42 0 51-32 51-76 0-42-9-74-50-73" id="ak"/><g id="d"><use transform="matrix(0.05,0,0,0.05,0,0)" xlink:href="#ai"/><use transform="matrix(0.05,0,0,0.05,9,0)" xlink:href="#aj"/><use transform="matrix(0.05,0,0,0.05,19,0)" xlink:href="#ak"/><use transform="matrix(0.05,0,0,0.05,29,0)" xlink:href="#ab"/><use transform="matrix(0.05,0,0,0.05,39,0)" xlink:href="#ac"/><use transform="matrix(0.05,0,0,0.05,44,0)" xlink:href="#ad"/><use transform="matrix(0.05,0,0,0.05,56,0)" xlink:href="#ae"/><use transform="matrix(0.05,0,0,0.05,61,0)" xlink:href="#af"/><use transform="matrix(0.05,0,0,0.05,66.95,0)" xlink:href="#ag"/><use transform="matrix(0.05,0,0,0.05,70.9,0)" xlink:href="#Y"/><use transform="matrix(0.05,0,0,0.05,80.9,0)" xlink:href="#ah"/></g><path fill="#333" d="M24 0v-261h32V0H24" id="al"/><path fill="#333" d="M140-251c81 0 123 46 123 126C263-53 228-8 163 1c7 30 30 48 69 40v23c-55 16-95-15-103-61C56-3 17-48 17-125c0-80 42-126 123-126zm0 227c63 0 89-41 89-101s-29-99-89-99c-61 0-89 39-89 99S79-25 140-24" id="am"/><path fill="#333" d="M84 4C-5 8 30-112 23-190h32v120c0 31 7 50 39 49 72-2 45-101 50-169h31l1 190h-30c-1-10 1-25-2-33-11 22-28 36-60 37" id="an"/><path fill="#333" d="M179-190L93 31C79 59 56 82 12 73V49c39 6 53-20 64-50L1-190h34L92-34l54-156h33" id="ao"/><g id="e"><use transform="matrix(0.05,0,0,0.05,0,0)" xlink:href="#ae"/><use transform="matrix(0.05,0,0,0.05,5,0)" xlink:href="#aj"/><use transform="matrix(0.05,0,0,0.05,15,0)" xlink:href="#ae"/><use transform="matrix(0.05,0,0,0.05,20,0)" xlink:href="#Z"/><use transform="matrix(0.05,0,0,0.05,30,0)" xlink:href="#al"/><use transform="matrix(0.05,0,0,0.05,33.95,0)" xlink:href="#am"/><use transform="matrix(0.05,0,0,0.05,47.95,0)" xlink:href="#an"/><use transform="matrix(0.05,0,0,0.05,57.95,0)" xlink:href="#Z"/><use transform="matrix(0.05,0,0,0.05,67.95,0)" xlink:href="#Y"/><use transform="matrix(0.05,0,0,0.05,77.95,0)" xlink:href="#ae"/><use transform="matrix(0.05,0,0,0.05,82.95,0)" xlink:href="#ag"/><use transform="matrix(0.05,0,0,0.05,86.9,0)" xlink:href="#ae"/><use transform="matrix(0.05,0,0,0.05,91.9,0)" xlink:href="#ao"/><use transform="matrix(0.05,0,0,0.05,100.9,0)" xlink:href="#ac"/><use transform="matrix(0.05,0,0,0.05,105.9,0)" xlink:href="#ag"/><use transform="matrix(0.05,0,0,0.05,109.85000000000001,0)" xlink:href="#Y"/><use transform="matrix(0.05,0,0,0.05,119.85000000000001,0)" xlink:href="#ae"/></g><path fill="#333" d="M30 0v-248h33v221h125V0H30" id="ap"/><path fill="#333" d="M108 0H70L1-190h34L89-25l56-165h34" id="aq"/><g id="f"><use transform="matrix(0.05,0,0,0.05,0,0)" xlink:href="#af"/><use transform="matrix(0.05,0,0,0.05,5.95,0)" xlink:href="#ab"/><use transform="matrix(0.05,0,0,0.05,15.949999999999998,0)" xlink:href="#aj"/><use transform="matrix(0.05,0,0,0.05,25.950000000000003,0)" xlink:href="#af"/><use transform="matrix(0.05,0,0,0.05,31.899999999999995,0)" xlink:href="#ak"/><use transform="matrix(0.05,0,0,0.05,41.9,0)" xlink:href="#ab"/><use transform="matrix(0.05,0,0,0.05,51.900000000000006,0)" xlink:href="#af"/><use transform="matrix(0.05,0,0,0.05,57.85,0)" xlink:href="#ap"/><use transform="matrix(0.05,0,0,0.05,67.85,0)" xlink:href="#ab"/><use transform="matrix(0.05,0,0,0.05,77.85,0)" xlink:href="#aq"/><use transform="matrix(0.05,0,0,0.05,86.85,0)" xlink:href="#ab"/><use transform="matrix(0.05,0,0,0.05,96.85,0)" xlink:href="#al"/><use transform="matrix(0.05,0,0,0.05,100.8,0)" xlink:href="#ac"/><use transform="matrix(0.05,0,0,0.05,105.80000000000001,0)" xlink:href="#ag"/><use transform="matrix(0.05,0,0,0.05,109.75,0)" xlink:href="#Y"/><use transform="matrix(0.05,0,0,0.05,119.75,0)" xlink:href="#ae"/></g><path fill="#333" d="M118-107v75H92v-75H18v-26h74v-75h26v75h74v26h-74" id="ar"/><use transform="matrix(0.05,0,0,0.05,0,0)" xlink:href="#ar" id="g"/><path fill="#333" d="M87 75C49 33 22-17 22-94c0-76 28-126 65-167h31c-38 41-64 92-64 168S80 34 118 75H87" id="as"/><path fill="#333" d="M33-261c38 41 65 92 65 168S71 34 33 75H2C39 34 66-17 66-93S39-220 2-261h31" id="at"/><g id="h"><use transform="matrix(0.05,0,0,0.05,0,0)" xlink:href="#ae"/><use transform="matrix(0.05,0,0,0.05,5,0)" xlink:href="#aj"/><use transform="matrix(0.05,0,0,0.05,15,0)" xlink:href="#ad"/><use transform="matrix(0.05,0,0,0.05,27,0)" xlink:href="#ae"/><use transform="matrix(0.05,0,0,0.05,32,0)" xlink:href="#af"/><use transform="matrix(0.05,0,0,0.05,37.95,0)" xlink:href="#ag"/><use transform="matrix(0.05,0,0,0.05,41.900000000000006,0)" xlink:href="#Y"/><use transform="matrix(0.05,0,0,0.05,51.900000000000006,0)" xlink:href="#ah"/><use transform="matrix(0.05,0,0,0.05,61.900000000000006,0)" xlink:href="#as"/><use transform="matrix(0.05,0,0,0.05,67.85000000000001,0)" xlink:href="#at"/><use transform="matrix(0.05,0,0,0.05,73.80000000000001,0)" xlink:href="#ac"/><use transform="matrix(0.05,0,0,0.05,78.80000000000001,0)" xlink:href="#ad"/><use transform="matrix(0.05,0,0,0.05,90.80000000000001,0)" xlink:href="#ae"/><use transform="matrix(0.05,0,0,0.05,95.80000000000001,0)" xlink:href="#af"/><use transform="matrix(0.05,0,0,0.05,101.75000000000001,0)" xlink:href="#ag"/><use transform="matrix(0.05,0,0,0.05,105.7,0)" xlink:href="#Y"/><use transform="matrix(0.05,0,0,0.05,115.7,0)" xlink:href="#ah"/></g><path fill="#333" d="M18-100v-36l175-74v27L42-118l151 64v27" id="au"/><path fill="#333" d="M18-27v-27l151-64-151-65v-27l175 74v36" id="av"/><g id="i"><use transform="matrix(0.05,0,0,0.05,0,0)" xlink:href="#au"/><use transform="matrix(0.05,0,0,0.05,10.5,0)" xlink:href="#au"/><use transform="matrix(0.05,0,0,0.05,21,0)" xlink:href="#aj"/><use transform="matrix(0.05,0,0,0.05,31,0)" xlink:href="#aq"/><use transform="matrix(0.05,0,0,0.05,40,0)" xlink:href="#ab"/><use transform="matrix(0.05,0,0,0.05,50,0)" xlink:href="#af"/><use transform="matrix(0.05,0,0,0.05,55.95,0)" xlink:href="#af"/><use transform="matrix(0.05,0,0,0.05,61.900000000000006,0)" xlink:href="#ag"/><use transform="matrix(0.05,0,0,0.05,65.85000000000001,0)" xlink:href="#ak"/><use transform="matrix(0.05,0,0,0.05,75.85000000000001,0)" xlink:href="#ab"/><use transform="matrix(0.05,0,0,0.05,85.85000000000001,0)" xlink:href="#av"/><use transform="matrix(0.05,0,0,0.05,96.35000000000001,0)" xlink:href="#av"/></g><path fill="#333" d="M114-157C55-157 80-60 75 0H25v-261h50l-1 109c12-26 28-41 61-42 86-1 58 113 63 194h-50c-7-57 23-157-34-157" id="aw"/><path fill="#333" d="M133-34C117-15 103 5 69 4 32 3 11-16 11-54c-1-60 55-63 116-61 1-26-3-47-28-47-18 1-26 9-28 27l-52-2c7-38 36-58 82-57s74 22 75 68l1 82c-1 14 12 18 25 15v27c-30 8-71 5-69-32zm-48 3c29 0 43-24 42-57-32 0-66-3-65 30 0 17 8 27 23 27" id="ax"/><path fill="#333" d="M137-138c1-29-70-34-71-4 15 46 118 7 119 86 1 83-164 76-172 9l43-7c4 19 20 25 44 25 33 8 57-30 24-41C81-84 22-81 20-136c-2-80 154-74 161-7" id="ay"/><path fill="#333" d="M185-48c-13 30-37 53-82 52C43 2 14-33 14-96s30-98 90-98c62 0 83 45 84 108H66c0 31 8 55 39 56 18 0 30-7 34-22zm-45-69c5-46-57-63-70-21-2 6-4 13-4 21h74" id="az"/><g id="j"><use transform="matrix(0.05,0,0,0.05,0,0)" xlink:href="#Q"/><use transform="matrix(0.05,0,0,0.05,12,0)" xlink:href="#U"/><use transform="matrix(0.05,0,0,0.05,22.950000000000003,0)" xlink:href="#R"/><use transform="matrix(0.05,0,0,0.05,29.950000000000003,0)" xlink:href="#V"/><use transform="matrix(0.05,0,0,0.05,39.95,0)" xlink:href="#aw"/><use transform="matrix(0.05,0,0,0.05,50.900000000000006,0)" xlink:href="#ax"/><use transform="matrix(0.05,0,0,0.05,60.900000000000006,0)" xlink:href="#ay"/><use transform="matrix(0.05,0,0,0.05,70.9,0)" xlink:href="#az"/></g><path fill="#333" d="M190 0L58-211 59 0H30v-248h39L202-35l-2-213h31V0h-41" id="aA"/><g id="k"><use transform="matrix(0.05,0,0,0.05,0,0)" xlink:href="#aq"/><use transform="matrix(0.05,0,0,0.05,9,0)" xlink:href="#ab"/><use transform="matrix(0.05,0,0,0.05,19,0)" xlink:href="#Y"/><use transform="matrix(0.05,0,0,0.05,29,0)" xlink:href="#ak"/><use transform="matrix(0.05,0,0,0.05,39,0)" xlink:href="#aj"/><use transform="matrix(0.05,0,0,0.05,49,0)" xlink:href="#af"/><use transform="matrix(0.05,0,0,0.05,54.95,0)" xlink:href="#aA"/><use transform="matrix(0.05,0,0,0.05,67.9,0)" xlink:href="#Z"/><use transform="matrix(0.05,0,0,0.05,77.9,0)" xlink:href="#aa"/><use transform="matrix(0.05,0,0,0.05,92.85000000000001,0)" xlink:href="#ab"/><use transform="matrix(0.05,0,0,0.05,102.85000000000001,0)" xlink:href="#ac"/><use transform="matrix(0.05,0,0,0.05,107.85000000000001,0)" xlink:href="#ad"/><use transform="matrix(0.05,0,0,0.05,119.85000000000001,0)" xlink:href="#ae"/><use transform="matrix(0.05,0,0,0.05,124.85000000000001,0)" xlink:href="#af"/><use transform="matrix(0.05,0,0,0.05,130.8,0)" xlink:href="#ag"/><use transform="matrix(0.05,0,0,0.05,134.75,0)" xlink:href="#Y"/><use transform="matrix(0.05,0,0,0.05,144.75,0)" xlink:href="#ah"/></g><path fill="#333" d="M205 0l-28-72H64L36 0H1l101-248h38L239 0h-34zm-38-99l-47-123c-12 45-31 82-46 123h93" id="aB"/><path fill="#333" d="M115-194c53 0 69 39 70 98 0 66-23 100-70 100C84 3 66-7 56-30L54 0H23l1-261h32v101c10-23 28-34 59-34zm-8 174c40 0 45-34 45-75 0-40-5-75-45-74-42 0-51 32-51 76 0 43 10 73 51 73" id="aC"/><g id="l"><use transform="matrix(0.05,0,0,0.05,0,0)" xlink:href="#ae"/><use transform="matrix(0.05,0,0,0.05,5,0)" xlink:href="#aj"/><use transform="matrix(0.05,0,0,0.05,15,0)" xlink:href="#ae"/><use transform="matrix(0.05,0,0,0.05,20,0)" xlink:href="#Z"/><use transform="matrix(0.05,0,0,0.05,30,0)" xlink:href="#al"/><use transform="matrix(0.05,0,0,0.05,33.95,0)" xlink:href="#aB"/><use transform="matrix(0.05,0,0,0.05,45.95,0)" xlink:href="#aa"/><use transform="matrix(0.05,0,0,0.05,60.900000000000006,0)" xlink:href="#aj"/><use transform="matrix(0.05,0,0,0.05,70.9,0)" xlink:href="#an"/><use transform="matrix(0.05,0,0,0.05,80.9,0)" xlink:href="#Y"/><use transform="matrix(0.05,0,0,0.05,90.9,0)" xlink:href="#ae"/><use transform="matrix(0.05,0,0,0.05,95.9,0)" xlink:href="#ac"/><use transform="matrix(0.05,0,0,0.05,100.9,0)" xlink:href="#ak"/><use transform="matrix(0.05,0,0,0.05,110.9,0)" xlink:href="#aj"/><use transform="matrix(0.05,0,0,0.05,120.9,0)" xlink:href="#an"/><use transform="matrix(0.05,0,0,0.05,130.9,0)" xlink:href="#aC"/><use transform="matrix(0.05,0,0,0.05,140.9,0)" xlink:href="#al"/><use transform="matrix(0.05,0,0,0.05,144.85,0)" xlink:href="#ab"/></g><path fill="#333" d="M169-182c-1-43-94-46-97-3 18 66 151 10 154 114 3 95-165 93-204 36-6-8-10-19-12-30l50-8c3 46 112 56 116 5-17-69-150-10-154-114-4-87 153-88 188-35 5 8 8 18 10 28" id="aD"/><path fill="#333" d="M25 0v-261h50V0H25" id="aE"/><g id="m"><use transform="matrix(0.05,0,0,0.05,0,0)" xlink:href="#aD"/><use transform="matrix(0.05,0,0,0.05,12,0)" xlink:href="#ax"/><use transform="matrix(0.05,0,0,0.05,22,0)" xlink:href="#aE"/><use transform="matrix(0.05,0,0,0.05,27,0)" xlink:href="#az"/></g><path fill="#333" d="M24-248c120-7 223 5 221 122C244-46 201 0 124 0H24v-248zM76-40c74 7 117-18 117-86 0-67-45-88-117-82v168" id="aF"/><path fill="#333" d="M220-157c-53 9-28 100-34 157h-49v-107c1-27-5-49-29-50C55-147 81-57 75 0H25l-1-190h47c2 12-1 28 3 38 10-53 101-56 108 0 13-22 24-43 59-42 82 1 51 116 57 194h-49v-107c-1-25-5-48-29-50" id="aG"/><path fill="#333" d="M195-6C206 82 75 100 31 46c-4-6-6-13-8-21l49-6c3 16 16 24 34 25 40 0 42-37 40-79-11 22-30 35-61 35-53 0-70-43-70-97 0-56 18-96 73-97 30 0 46 14 59 34l2-30h47zm-90-29c32 0 41-27 41-63 0-35-9-62-40-62-32 0-39 29-40 63 0 36 9 62 39 62" id="aH"/><g id="n"><use transform="matrix(0.05,0,0,0.05,0,0)" xlink:href="#aF"/><use transform="matrix(0.05,0,0,0.05,12.950000000000001,0)" xlink:href="#ax"/><use transform="matrix(0.05,0,0,0.05,22.950000000000003,0)" xlink:href="#aG"/><use transform="matrix(0.05,0,0,0.05,38.95,0)" xlink:href="#ax"/><use transform="matrix(0.05,0,0,0.05,48.95,0)" xlink:href="#aH"/><use transform="matrix(0.05,0,0,0.05,59.900000000000006,0)" xlink:href="#az"/></g><path fill="#333" d="M135-143c-3-34-86-38-87 0 15 53 115 12 119 90S17 21 10-45l28-5c4 36 97 45 98 0-10-56-113-15-118-90-4-57 82-63 122-42 12 7 21 19 24 35" id="aI"/><g id="o"><use transform="matrix(0.05,0,0,0.05,0,0)" xlink:href="#ai"/><use transform="matrix(0.05,0,0,0.05,9,0)" xlink:href="#Z"/><use transform="matrix(0.05,0,0,0.05,19,0)" xlink:href="#an"/><use transform="matrix(0.05,0,0,0.05,29,0)" xlink:href="#aI"/><use transform="matrix(0.05,0,0,0.05,38,0)" xlink:href="#ab"/><use transform="matrix(0.05,0,0,0.05,48,0)" xlink:href="#ac"/><use transform="matrix(0.05,0,0,0.05,53,0)" xlink:href="#ad"/><use transform="matrix(0.05,0,0,0.05,65,0)" xlink:href="#ae"/><use transform="matrix(0.05,0,0,0.05,70,0)" xlink:href="#af"/><use transform="matrix(0.05,0,0,0.05,75.95,0)" xlink:href="#ag"/><use transform="matrix(0.05,0,0,0.05,79.9,0)" xlink:href="#Y"/><use transform="matrix(0.05,0,0,0.05,89.9,0)" xlink:href="#ah"/></g><path d="M185-189c-5-48-123-54-124 2 14 75 158 14 163 119 3 78-121 87-175 55-17-10-28-26-33-46l33-7c5 56 141 63 141-1 0-78-155-14-162-118-5-82 145-84 179-34 5 7 8 16 11 25" id="aJ"/><path d="M59-47c-2 24 18 29 38 22v24C64 9 27 4 27-40v-127H5v-23h24l9-43h21v43h35v23H59v120" id="aK"/><path d="M141-36C126-15 110 5 73 4 37 3 15-17 15-53c-1-64 63-63 125-63 3-35-9-54-41-54-24 1-41 7-42 31l-33-3c5-37 33-52 76-52 45 0 72 20 72 64v82c-1 20 7 32 28 27v20c-31 9-61-2-59-35zM48-53c0 20 12 33 32 33 41-3 63-29 60-74-43 2-92-5-92 41" id="aL"/><path d="M24-231v-30h32v30H24zM24 0v-190h32V0H24" id="aM"/><path d="M100-194c62-1 85 37 85 99 1 63-27 99-86 99S16-35 15-95c0-66 28-99 85-99zM99-20c44 1 53-31 53-75 0-43-8-75-51-75s-53 32-53 75 10 74 51 75" id="aN"/><path d="M117-194c89-4 53 116 60 194h-32v-121c0-31-8-49-39-48C34-167 62-67 57 0H25l-1-190h30c1 10-1 24 2 32 11-22 29-35 61-36" id="aO"/><path d="M114-163C36-179 61-72 57 0H25l-1-190h30c1 12-1 29 2 39 6-27 23-49 58-41v29" id="aP"/><path d="M179-190L93 31C79 59 56 82 12 73V49c39 6 53-20 64-50L1-190h34L92-34l54-156h33" id="aQ"/><g id="p"><use transform="matrix(0.087037037037037,0,0,0.087037037037037,0,0)" xlink:href="#aJ"/><use transform="matrix(0.087037037037037,0,0,0.087037037037037,20.88888888888888,0)" xlink:href="#aK"/><use transform="matrix(0.087037037037037,0,0,0.087037037037037,29.592592592592577,0)" xlink:href="#aL"/><use transform="matrix(0.087037037037037,0,0,0.087037037037037,46.999999999999964,0)" xlink:href="#aK"/><use transform="matrix(0.087037037037037,0,0,0.087037037037037,55.70370370370367,0)" xlink:href="#aM"/><use transform="matrix(0.087037037037037,0,0,0.087037037037037,62.57962962962959,0)" xlink:href="#aN"/><use transform="matrix(0.087037037037037,0,0,0.087037037037037,79.987037037037,0)" xlink:href="#aO"/><use transform="matrix(0.087037037037037,0,0,0.087037037037037,97.3944444444444,0)" xlink:href="#aL"/><use transform="matrix(0.087037037037037,0,0,0.087037037037037,114.80185185185178,0)" xlink:href="#aP"/><use transform="matrix(0.087037037037037,0,0,0.087037037037037,125.15925925925919,0)" xlink:href="#aQ"/></g><path d="M106-169C34-169 62-67 57 0H25v-261h32l-1 103c12-21 28-36 61-36 89 0 53 116 60 194h-32v-121c2-32-8-49-39-48" id="aR"/><path d="M115-194c55 1 70 41 70 98S169 2 115 4C84 4 66-9 55-30l1 105H24l-1-265h31l2 30c10-21 28-34 59-34zm-8 174c40 0 45-34 45-75s-6-73-45-74c-42 0-51 32-51 76 0 43 10 73 51 73" id="aS"/><g id="q"><use transform="matrix(0.087037037037037,0,0,0.087037037037037,0,0)" xlink:href="#aJ"/><use transform="matrix(0.087037037037037,0,0,0.087037037037037,20.88888888888888,0)" xlink:href="#aR"/><use transform="matrix(0.087037037037037,0,0,0.087037037037037,38.296296296296276,0)" xlink:href="#aN"/><use transform="matrix(0.087037037037037,0,0,0.087037037037037,55.70370370370368,0)" xlink:href="#aS"/></g><path d="M240 0l2-218c-23 76-54 145-80 218h-23L58-218 59 0H30v-248h44l77 211c21-75 51-140 76-211h43V0h-30" id="aT"/><path d="M177-190C167-65 218 103 67 71c-23-6-38-20-44-43l32-5c15 47 100 32 89-28v-30C133-14 115 1 83 1 29 1 15-40 15-95c0-56 16-97 71-98 29-1 48 16 59 35 1-10 0-23 2-32h30zM94-22c36 0 50-32 50-73 0-42-14-75-50-75-39 0-46 34-46 75s6 73 46 73" id="aU"/><path d="M100-194c63 0 86 42 84 106H49c0 40 14 67 53 68 26 1 43-12 49-29l28 8c-11 28-37 45-77 45C44 4 14-33 15-96c1-61 26-98 85-98zm52 81c6-60-76-77-97-28-3 7-6 17-6 28h103" id="aV"/><path d="M210-169c-67 3-38 105-44 169h-31v-121c0-29-5-50-35-48C34-165 62-65 56 0H25l-1-190h30c1 10-1 24 2 32 10-44 99-50 107 0 11-21 27-35 58-36 85-2 47 119 55 194h-31v-121c0-29-5-49-35-48" id="aW"/><g id="r"><use transform="matrix(0.087037037037037,0,0,0.087037037037037,0,0)" xlink:href="#aT"/><use transform="matrix(0.087037037037037,0,0,0.087037037037037,26.02407407407406,0)" xlink:href="#aL"/><use transform="matrix(0.087037037037037,0,0,0.087037037037037,43.431481481481455,0)" xlink:href="#aO"/><use transform="matrix(0.087037037037037,0,0,0.087037037037037,60.83888888888885,0)" xlink:href="#aL"/><use transform="matrix(0.087037037037037,0,0,0.087037037037037,78.24629629629625,0)" xlink:href="#aU"/><use transform="matrix(0.087037037037037,0,0,0.087037037037037,95.65370370370366,0)" xlink:href="#aV"/><use transform="matrix(0.087037037037037,0,0,0.087037037037037,113.06111111111103,0)" xlink:href="#aW"/><use transform="matrix(0.087037037037037,0,0,0.087037037037037,139.0851851851851,0)" xlink:href="#aV"/><use transform="matrix(0.087037037037037,0,0,0.087037037037037,156.4925925925925,0)" xlink:href="#aO"/><use transform="matrix(0.087037037037037,0,0,0.087037037037037,173.8999999999999,0)" xlink:href="#aK"/></g><path fill="#333" d="M135-194c53 0 70 44 70 98 0 56-19 98-73 100-31 1-45-17-59-34 3 33 2 69 2 105H25l-1-265h48c2 10 0 23 3 31 11-24 29-35 60-35zM114-30c33 0 39-31 40-66 0-38-9-64-40-64-56 0-55 130 0 130" id="aX"/><g id="s"><use transform="matrix(0.05,0,0,0.05,0,0)" xlink:href="#aD"/><use transform="matrix(0.05,0,0,0.05,12,0)" xlink:href="#aw"/><use transform="matrix(0.05,0,0,0.05,22.950000000000003,0)" xlink:href="#S"/><use transform="matrix(0.05,0,0,0.05,33.900000000000006,0)" xlink:href="#aX"/></g><path fill="#333" d="M115-194c55 1 70 41 70 98S169 2 115 4C84 4 66-9 55-30l1 105H24l-1-265h31l2 30c10-21 28-34 59-34zm-8 174c40 0 45-34 45-75s-6-73-45-74c-42 0-51 32-51 76 0 43 10 73 51 73" id="aY"/><path fill="#333" d="M30-248c87 1 191-15 191 75 0 78-77 80-158 76V0H30v-248zm33 125c57 0 124 11 124-50 0-59-68-47-124-48v98" id="aZ"/><g id="t"><use transform="matrix(0.05,0,0,0.05,0,0)" xlink:href="#aY"/><use transform="matrix(0.05,0,0,0.05,10,0)" xlink:href="#af"/><use transform="matrix(0.05,0,0,0.05,15.949999999999998,0)" xlink:href="#aj"/><use transform="matrix(0.05,0,0,0.05,25.950000000000003,0)" xlink:href="#ak"/><use transform="matrix(0.05,0,0,0.05,35.95,0)" xlink:href="#an"/><use transform="matrix(0.05,0,0,0.05,45.95,0)" xlink:href="#ai"/><use transform="matrix(0.05,0,0,0.05,54.95,0)" xlink:href="#ae"/><use transform="matrix(0.05,0,0,0.05,59.95,0)" xlink:href="#ap"/><use transform="matrix(0.05,0,0,0.05,69.95,0)" xlink:href="#ag"/><use transform="matrix(0.05,0,0,0.05,73.9,0)" xlink:href="#aI"/><use transform="matrix(0.05,0,0,0.05,82.9,0)" xlink:href="#ae"/><use transform="matrix(0.05,0,0,0.05,87.9,0)" xlink:href="#ac"/><use transform="matrix(0.05,0,0,0.05,92.9,0)" xlink:href="#ap"/><use transform="matrix(0.05,0,0,0.05,102.9,0)" xlink:href="#ag"/><use transform="matrix(0.05,0,0,0.05,106.85000000000001,0)" xlink:href="#aI"/><use transform="matrix(0.05,0,0,0.05,115.85000000000001,0)" xlink:href="#ae"/><use transform="matrix(0.05,0,0,0.05,120.85000000000001,0)" xlink:href="#au"/><use transform="matrix(0.05,0,0,0.05,131.35000000000002,0)" xlink:href="#aZ"/><use transform="matrix(0.05,0,0,0.05,143.35000000000002,0)" xlink:href="#af"/><use transform="matrix(0.05,0,0,0.05,149.3,0)" xlink:href="#aj"/><use transform="matrix(0.05,0,0,0.05,159.3,0)" xlink:href="#ak"/><use transform="matrix(0.05,0,0,0.05,169.3,0)" xlink:href="#an"/><use transform="matrix(0.05,0,0,0.05,179.3,0)" xlink:href="#ai"/><use transform="matrix(0.05,0,0,0.05,188.3,0)" xlink:href="#ae"/><use transform="matrix(0.05,0,0,0.05,193.3,0)" xlink:href="#av"/></g><path fill="#333" d="M106-169C34-169 62-67 57 0H25v-261h32l-1 103c12-21 28-36 61-36 89 0 53 116 60 194h-32v-121c2-32-8-49-39-48" id="ba"/><g id="u"><use transform="matrix(0.05,0,0,0.05,0,0)" xlink:href="#aY"/><use transform="matrix(0.05,0,0,0.05,10,0)" xlink:href="#an"/><use transform="matrix(0.05,0,0,0.05,20,0)" xlink:href="#af"/><use transform="matrix(0.05,0,0,0.05,25.950000000000003,0)" xlink:href="#ai"/><use transform="matrix(0.05,0,0,0.05,34.95,0)" xlink:href="#ba"/><use transform="matrix(0.05,0,0,0.05,44.95,0)" xlink:href="#Z"/><use transform="matrix(0.05,0,0,0.05,54.95,0)" xlink:href="#aI"/><use transform="matrix(0.05,0,0,0.05,63.95,0)" xlink:href="#ab"/><use transform="matrix(0.05,0,0,0.05,73.95,0)" xlink:href="#ap"/><use transform="matrix(0.05,0,0,0.05,83.95,0)" xlink:href="#ag"/><use transform="matrix(0.05,0,0,0.05,87.9,0)" xlink:href="#aI"/><use transform="matrix(0.05,0,0,0.05,96.9,0)" xlink:href="#ae"/><use transform="matrix(0.05,0,0,0.05,101.9,0)" xlink:href="#ac"/><use transform="matrix(0.05,0,0,0.05,106.9,0)" xlink:href="#ap"/><use transform="matrix(0.05,0,0,0.05,116.9,0)" xlink:href="#ag"/><use transform="matrix(0.05,0,0,0.05,120.85000000000001,0)" xlink:href="#aI"/><use transform="matrix(0.05,0,0,0.05,129.85000000000002,0)" xlink:href="#ae"/><use transform="matrix(0.05,0,0,0.05,134.85000000000002,0)" xlink:href="#au"/><use transform="matrix(0.05,0,0,0.05,145.35000000000002,0)" xlink:href="#aZ"/><use transform="matrix(0.05,0,0,0.05,157.35000000000002,0)" xlink:href="#an"/><use transform="matrix(0.05,0,0,0.05,167.35000000000002,0)" xlink:href="#af"/><use transform="matrix(0.05,0,0,0.05,173.3,0)" xlink:href="#ai"/><use transform="matrix(0.05,0,0,0.05,182.3,0)" xlink:href="#ba"/><use transform="matrix(0.05,0,0,0.05,192.3,0)" xlink:href="#Z"/><use transform="matrix(0.05,0,0,0.05,202.3,0)" xlink:href="#aI"/><use transform="matrix(0.05,0,0,0.05,211.3,0)" xlink:href="#ab"/><use transform="matrix(0.05,0,0,0.05,221.3,0)" xlink:href="#av"/></g><g id="v"><use transform="matrix(0.05,0,0,0.05,0,0)" xlink:href="#aI"/><use transform="matrix(0.05,0,0,0.05,9,0)" xlink:href="#Z"/><use transform="matrix(0.05,0,0,0.05,19,0)" xlink:href="#al"/><use transform="matrix(0.05,0,0,0.05,22.95,0)" xlink:href="#ab"/><use transform="matrix(0.05,0,0,0.05,32.95,0)" xlink:href="#aI"/><use transform="matrix(0.05,0,0,0.05,41.95,0)" xlink:href="#ap"/><use transform="matrix(0.05,0,0,0.05,51.95,0)" xlink:href="#ag"/><use transform="matrix(0.05,0,0,0.05,55.900000000000006,0)" xlink:href="#aI"/><use transform="matrix(0.05,0,0,0.05,64.9,0)" xlink:href="#ae"/><use transform="matrix(0.05,0,0,0.05,69.9,0)" xlink:href="#ac"/><use transform="matrix(0.05,0,0,0.05,74.9,0)" xlink:href="#ap"/><use transform="matrix(0.05,0,0,0.05,84.9,0)" xlink:href="#ag"/><use transform="matrix(0.05,0,0,0.05,88.85000000000001,0)" xlink:href="#aI"/><use transform="matrix(0.05,0,0,0.05,97.85000000000001,0)" xlink:href="#ae"/><use transform="matrix(0.05,0,0,0.05,102.85000000000001,0)" xlink:href="#au"/><use transform="matrix(0.05,0,0,0.05,113.35000000000001,0)" xlink:href="#ad"/><use transform="matrix(0.05,0,0,0.05,125.35000000000001,0)" xlink:href="#Z"/><use transform="matrix(0.05,0,0,0.05,135.35000000000002,0)" xlink:href="#al"/><use transform="matrix(0.05,0,0,0.05,139.3,0)" xlink:href="#ab"/><use transform="matrix(0.05,0,0,0.05,149.3,0)" xlink:href="#av"/></g><path fill="#333" d="M30-248c118-7 216 8 213 122C240-48 200 0 122 0H30v-248zM63-27c89 8 146-16 146-99s-60-101-146-95v194" id="bb"/><g id="w"><use transform="matrix(0.05,0,0,0.05,0,0)" xlink:href="#ak"/><use transform="matrix(0.05,0,0,0.05,10,0)" xlink:href="#Z"/><use transform="matrix(0.05,0,0,0.05,20,0)" xlink:href="#aa"/><use transform="matrix(0.05,0,0,0.05,34.95,0)" xlink:href="#Z"/><use transform="matrix(0.05,0,0,0.05,44.95,0)" xlink:href="#ah"/><use transform="matrix(0.05,0,0,0.05,54.95,0)" xlink:href="#ab"/><use transform="matrix(0.05,0,0,0.05,64.95,0)" xlink:href="#ap"/><use transform="matrix(0.05,0,0,0.05,74.95,0)" xlink:href="#ag"/><use transform="matrix(0.05,0,0,0.05,78.9,0)" xlink:href="#aI"/><use transform="matrix(0.05,0,0,0.05,87.9,0)" xlink:href="#ae"/><use transform="matrix(0.05,0,0,0.05,92.9,0)" xlink:href="#ac"/><use transform="matrix(0.05,0,0,0.05,97.9,0)" xlink:href="#ap"/><use transform="matrix(0.05,0,0,0.05,107.9,0)" xlink:href="#ag"/><use transform="matrix(0.05,0,0,0.05,111.85000000000001,0)" xlink:href="#aI"/><use transform="matrix(0.05,0,0,0.05,120.85000000000001,0)" xlink:href="#ae"/><use transform="matrix(0.05,0,0,0.05,125.85000000000001,0)" xlink:href="#au"/><use transform="matrix(0.05,0,0,0.05,136.35000000000002,0)" xlink:href="#bb"/><use transform="matrix(0.05,0,0,0.05,149.3,0)" xlink:href="#Z"/><use transform="matrix(0.05,0,0,0.05,159.3,0)" xlink:href="#aa"/><use transform="matrix(0.05,0,0,0.05,174.25,0)" xlink:href="#Z"/><use transform="matrix(0.05,0,0,0.05,184.25,0)" xlink:href="#ah"/><use transform="matrix(0.05,0,0,0.05,194.25,0)" xlink:href="#ab"/><use transform="matrix(0.05,0,0,0.05,204.25,0)" xlink:href="#av"/></g><use transform="matrix(0.05,0,0,0.05,0,0)" xlink:href="#X" id="x"/><g id="y"><use transform="matrix(0.05,0,0,0.05,0,0)" xlink:href="#Z"/><use transform="matrix(0.05,0,0,0.05,10,0)" xlink:href="#ad"/><use transform="matrix(0.05,0,0,0.05,22,0)" xlink:href="#ba"/><use transform="matrix(0.05,0,0,0.05,32,0)" xlink:href="#aj"/><use transform="matrix(0.05,0,0,0.05,42,0)" xlink:href="#aY"/><use transform="matrix(0.05,0,0,0.05,52,0)" xlink:href="#ac"/><use transform="matrix(0.05,0,0,0.05,57,0)" xlink:href="#ad"/><use transform="matrix(0.05,0,0,0.05,69,0)" xlink:href="#ba"/><use transform="matrix(0.05,0,0,0.05,79,0)" xlink:href="#aj"/><use transform="matrix(0.05,0,0,0.05,89,0)" xlink:href="#aY"/><path fill="#333" d="M-.9 1.25H99.9v1.32H-.9z"/></g><g id="z"><use transform="matrix(0.05,0,0,0.05,0,0)" xlink:href="#ab"/><use transform="matrix(0.05,0,0,0.05,10,0)" xlink:href="#Y"/><use transform="matrix(0.05,0,0,0.05,20,0)" xlink:href="#al"/><use transform="matrix(0.05,0,0,0.05,23.95,0)" xlink:href="#ag"/><use transform="matrix(0.05,0,0,0.05,27.899999999999995,0)" xlink:href="#aI"/><use transform="matrix(0.05,0,0,0.05,36.9,0)" xlink:href="#ae"/><use transform="matrix(0.05,0,0,0.05,41.9,0)" xlink:href="#aZ"/><use transform="matrix(0.05,0,0,0.05,53.900000000000006,0)" xlink:href="#af"/><use transform="matrix(0.05,0,0,0.05,59.85,0)" xlink:href="#aj"/><use transform="matrix(0.05,0,0,0.05,69.85,0)" xlink:href="#ak"/><use transform="matrix(0.05,0,0,0.05,79.85,0)" xlink:href="#an"/><use transform="matrix(0.05,0,0,0.05,89.85,0)" xlink:href="#ai"/><use transform="matrix(0.05,0,0,0.05,98.85,0)" xlink:href="#ae"/><use transform="matrix(0.05,0,0,0.05,103.84999999999998,0)" xlink:href="#as"/><use transform="matrix(0.05,0,0,0.05,109.80000000000001,0)" xlink:href="#Z"/><use transform="matrix(0.05,0,0,0.05,119.80000000000001,0)" xlink:href="#aZ"/><use transform="matrix(0.05,0,0,0.05,131.8,0)" xlink:href="#af"/><use transform="matrix(0.05,0,0,0.05,137.75,0)" xlink:href="#aj"/><use transform="matrix(0.05,0,0,0.05,147.75,0)" xlink:href="#ak"/><use transform="matrix(0.05,0,0,0.05,157.75,0)" xlink:href="#an"/><use transform="matrix(0.05,0,0,0.05,167.75,0)" xlink:href="#ai"/><use transform="matrix(0.05,0,0,0.05,176.75,0)" xlink:href="#ae"/><use transform="matrix(0.05,0,0,0.05,181.75,0)" xlink:href="#ac"/><use transform="matrix(0.05,0,0,0.05,186.75,0)" xlink:href="#aZ"/><use transform="matrix(0.05,0,0,0.05,198.75,0)" xlink:href="#af"/><use transform="matrix(0.05,0,0,0.05,204.7,0)" xlink:href="#aj"/><use transform="matrix(0.05,0,0,0.05,214.69999999999996,0)" xlink:href="#ak"/><use transform="matrix(0.05,0,0,0.05,224.69999999999996,0)" xlink:href="#an"/><use transform="matrix(0.05,0,0,0.05,234.69999999999996,0)" xlink:href="#ai"/><use transform="matrix(0.05,0,0,0.05,243.69999999999996,0)" xlink:href="#ae"/><use transform="matrix(0.05,0,0,0.05,248.69999999999996,0)" xlink:href="#at"/><use transform="matrix(0.05,0,0,0.05,254.64999999999998,0)" xlink:href="#ac"/><use transform="matrix(0.05,0,0,0.05,259.65,0)" xlink:href="#ad"/><use transform="matrix(0.05,0,0,0.05,271.65,0)" xlink:href="#ae"/><use transform="matrix(0.05,0,0,0.05,276.65,0)" xlink:href="#af"/><use transform="matrix(0.05,0,0,0.05,282.59999999999997,0)" xlink:href="#ag"/><use transform="matrix(0.05,0,0,0.05,286.54999999999995,0)" xlink:href="#Y"/><use transform="matrix(0.05,0,0,0.05,296.54999999999995,0)" xlink:href="#ah"/></g><g id="A"><use transform="matrix(0.05,0,0,0.05,0,0)" xlink:href="#Z"/><use transform="matrix(0.05,0,0,0.05,10,0)" xlink:href="#ak"/><use transform="matrix(0.05,0,0,0.05,20,0)" xlink:href="#ak"/><use transform="matrix(0.05,0,0,0.05,30,0)" xlink:href="#ad"/><use transform="matrix(0.05,0,0,0.05,42,0)" xlink:href="#Z"/><use transform="matrix(0.05,0,0,0.05,52,0)" xlink:href="#al"/><use transform="matrix(0.05,0,0,0.05,55.95,0)" xlink:href="#ab"/><use transform="matrix(0.05,0,0,0.05,65.95,0)" xlink:href="#as"/><use transform="matrix(0.05,0,0,0.05,71.9,0)" xlink:href="#Z"/><use transform="matrix(0.05,0,0,0.05,81.9,0)" xlink:href="#ad"/><use transform="matrix(0.05,0,0,0.05,93.9,0)" xlink:href="#Z"/><use transform="matrix(0.05,0,0,0.05,103.9,0)" xlink:href="#al"/><use transform="matrix(0.05,0,0,0.05,107.85000000000001,0)" xlink:href="#ab"/><use transform="matrix(0.05,0,0,0.05,117.85000000000001,0)" xlink:href="#ac"/><use transform="matrix(0.05,0,0,0.05,122.85000000000001,0)" xlink:href="#ad"/><use transform="matrix(0.05,0,0,0.05,134.85000000000002,0)" xlink:href="#Z"/><use transform="matrix(0.05,0,0,0.05,144.85000000000002,0)" xlink:href="#al"/><use transform="matrix(0.05,0,0,0.05,148.8,0)" xlink:href="#ab"/><use transform="matrix(0.05,0,0,0.05,158.8,0)" xlink:href="#at"/><use transform="matrix(0.05,0,0,0.05,164.75,0)" xlink:href="#ac"/><use transform="matrix(0.05,0,0,0.05,169.75,0)" xlink:href="#ad"/><use transform="matrix(0.05,0,0,0.05,181.75,0)" xlink:href="#ae"/><use transform="matrix(0.05,0,0,0.05,186.75,0)" xlink:href="#af"/><use transform="matrix(0.05,0,0,0.05,192.7,0)" xlink:href="#ag"/><use transform="matrix(0.05,0,0,0.05,196.64999999999998,0)" xlink:href="#Y"/><use transform="matrix(0.05,0,0,0.05,206.64999999999998,0)" xlink:href="#ah"/></g><g id="B"><use transform="matrix(0.05,0,0,0.05,0,0)" xlink:href="#Z"/><use transform="matrix(0.05,0,0,0.05,10,0)" xlink:href="#ak"/><use transform="matrix(0.05,0,0,0.05,20,0)" xlink:href="#ak"/><use transform="matrix(0.05,0,0,0.05,30,0)" xlink:href="#aZ"/><use transform="matrix(0.05,0,0,0.05,42,0)" xlink:href="#an"/><use transform="matrix(0.05,0,0,0.05,52,0)" xlink:href="#af"/><use transform="matrix(0.05,0,0,0.05,57.95,0)" xlink:href="#ai"/><use transform="matrix(0.05,0,0,0.05,66.95,0)" xlink:href="#ba"/><use transform="matrix(0.05,0,0,0.05,76.95,0)" xlink:href="#Z"/><use transform="matrix(0.05,0,0,0.05,86.95,0)" xlink:href="#aI"/><use transform="matrix(0.05,0,0,0.05,95.95,0)" xlink:href="#ab"/><use transform="matrix(0.05,0,0,0.05,105.95,0)" xlink:href="#as"/><use transform="matrix(0.05,0,0,0.05,111.9,0)" xlink:href="#Z"/><use transform="matrix(0.05,0,0,0.05,121.9,0)" xlink:href="#aZ"/><use transform="matrix(0.05,0,0,0.05,133.9,0)" xlink:href="#an"/><use transform="matrix(0.05,0,0,0.05,143.9,0)" xlink:href="#af"/><use transform="matrix(0.05,0,0,0.05,149.85,0)" xlink:href="#ai"/><use transform="matrix(0.05,0,0,0.05,158.85,0)" xlink:href="#ba"/><use transform="matrix(0.05,0,0,0.05,168.85,0)" xlink:href="#Z"/><use transform="matrix(0.05,0,0,0.05,178.85,0)" xlink:href="#aI"/><use transform="matrix(0.05,0,0,0.05,187.85,0)" xlink:href="#ab"/><use transform="matrix(0.05,0,0,0.05,197.85,0)" xlink:href="#ac"/><use transform="matrix(0.05,0,0,0.05,202.85,0)" xlink:href="#aZ"/><use transform="matrix(0.05,0,0,0.05,214.85000000000002,0)" xlink:href="#an"/><use transform="matrix(0.05,0,0,0.05,224.85000000000002,0)" xlink:href="#af"/><use transform="matrix(0.05,0,0,0.05,230.79999999999995,0)" xlink:href="#ai"/><use transform="matrix(0.05,0,0,0.05,239.79999999999995,0)" xlink:href="#ba"/><use transform="matrix(0.05,0,0,0.05,249.79999999999995,0)" xlink:href="#Z"/><use transform="matrix(0.05,0,0,0.05,259.79999999999995,0)" xlink:href="#aI"/><use transform="matrix(0.05,0,0,0.05,268.79999999999995,0)" xlink:href="#ab"/><use transform="matrix(0.05,0,0,0.05,278.79999999999995,0)" xlink:href="#at"/><use transform="matrix(0.05,0,0,0.05,284.74999999999994,0)" xlink:href="#ac"/><use transform="matrix(0.05,0,0,0.05,289.74999999999994,0)" xlink:href="#ad"/><use transform="matrix(0.05,0,0,0.05,301.74999999999994,0)" xlink:href="#ae"/><use transform="matrix(0.05,0,0,0.05,306.74999999999994,0)" xlink:href="#af"/><use transform="matrix(0.05,0,0,0.05,312.69999999999993,0)" xlink:href="#ag"/><use transform="matrix(0.05,0,0,0.05,316.6499999999999,0)" xlink:href="#Y"/><use transform="matrix(0.05,0,0,0.05,326.6499999999999,0)" xlink:href="#ah"/></g><g id="C"><use transform="matrix(0.05,0,0,0.05,0,0)" xlink:href="#Z"/><use transform="matrix(0.05,0,0,0.05,10,0)" xlink:href="#ak"/><use transform="matrix(0.05,0,0,0.05,20,0)" xlink:href="#ak"/><use transform="matrix(0.05,0,0,0.05,30,0)" xlink:href="#bb"/><use transform="matrix(0.05,0,0,0.05,42.95,0)" xlink:href="#Z"/><use transform="matrix(0.05,0,0,0.05,52.95,0)" xlink:href="#aa"/><use transform="matrix(0.05,0,0,0.05,67.9,0)" xlink:href="#Z"/><use transform="matrix(0.05,0,0,0.05,77.9,0)" xlink:href="#ah"/><use transform="matrix(0.05,0,0,0.05,87.9,0)" xlink:href="#ab"/><use transform="matrix(0.05,0,0,0.05,97.9,0)" xlink:href="#as"/><use transform="matrix(0.05,0,0,0.05,103.85000000000001,0)" xlink:href="#Z"/><use transform="matrix(0.05,0,0,0.05,113.85000000000001,0)" xlink:href="#bb"/><use transform="matrix(0.05,0,0,0.05,126.80000000000001,0)" xlink:href="#Z"/><use transform="matrix(0.05,0,0,0.05,136.8,0)" xlink:href="#aa"/><use transform="matrix(0.05,0,0,0.05,151.75,0)" xlink:href="#Z"/><use transform="matrix(0.05,0,0,0.05,161.75,0)" xlink:href="#ah"/><use transform="matrix(0.05,0,0,0.05,171.75,0)" xlink:href="#ab"/><use transform="matrix(0.05,0,0,0.05,181.75,0)" xlink:href="#ac"/><use transform="matrix(0.05,0,0,0.05,186.75,0)" xlink:href="#bb"/><use transform="matrix(0.05,0,0,0.05,199.7,0)" xlink:href="#Z"/><use transform="matrix(0.05,0,0,0.05,209.69999999999996,0)" xlink:href="#aa"/><use transform="matrix(0.05,0,0,0.05,224.64999999999998,0)" xlink:href="#Z"/><use transform="matrix(0.05,0,0,0.05,234.64999999999998,0)" xlink:href="#ah"/><use transform="matrix(0.05,0,0,0.05,244.64999999999998,0)" xlink:href="#ab"/><use transform="matrix(0.05,0,0,0.05,254.64999999999998,0)" xlink:href="#at"/><use transform="matrix(0.05,0,0,0.05,260.59999999999997,0)" xlink:href="#ac"/><use transform="matrix(0.05,0,0,0.05,265.59999999999997,0)" xlink:href="#ad"/><use transform="matrix(0.05,0,0,0.05,277.59999999999997,0)" xlink:href="#ae"/><use transform="matrix(0.05,0,0,0.05,282.59999999999997,0)" xlink:href="#af"/><use transform="matrix(0.05,0,0,0.05,288.54999999999995,0)" xlink:href="#ag"/><use transform="matrix(0.05,0,0,0.05,292.49999999999994,0)" xlink:href="#Y"/><use transform="matrix(0.05,0,0,0.05,302.49999999999994,0)" xlink:href="#ah"/></g><use transform="matrix(0.05,0,0,0.05,0,0)" xlink:href="#ar" id="D"/><g id="E"><use transform="matrix(0.05,0,0,0.05,0,0)" xlink:href="#ah"/><use transform="matrix(0.05,0,0,0.05,10,0)" xlink:href="#ab"/><use transform="matrix(0.05,0,0,0.05,20,0)" xlink:href="#ae"/><use transform="matrix(0.05,0,0,0.05,25,0)" xlink:href="#ad"/><use transform="matrix(0.05,0,0,0.05,37,0)" xlink:href="#ba"/><use transform="matrix(0.05,0,0,0.05,47,0)" xlink:href="#aj"/><use transform="matrix(0.05,0,0,0.05,57,0)" xlink:href="#aY"/><use transform="matrix(0.05,0,0,0.05,67,0)" xlink:href="#as"/><use transform="matrix(0.05,0,0,0.05,72.95,0)" xlink:href="#at"/><use transform="matrix(0.05,0,0,0.05,78.9,0)" xlink:href="#ac"/><use transform="matrix(0.05,0,0,0.05,83.9,0)" xlink:href="#ad"/><use transform="matrix(0.05,0,0,0.05,95.9,0)" xlink:href="#ba"/><use transform="matrix(0.05,0,0,0.05,105.9,0)" xlink:href="#aj"/><use transform="matrix(0.05,0,0,0.05,115.9,0)" xlink:href="#aY"/><path fill="#333" d="M-.9 1.25h127.7v1.32H-.9z"/></g><g id="F"><use transform="matrix(0.05,0,0,0.05,0,0)" xlink:href="#ah"/><use transform="matrix(0.05,0,0,0.05,10,0)" xlink:href="#ab"/><use transform="matrix(0.05,0,0,0.05,20,0)" xlink:href="#ae"/><use transform="matrix(0.05,0,0,0.05,25,0)" xlink:href="#ad"/><use transform="matrix(0.05,0,0,0.05,37,0)" xlink:href="#ba"/><use transform="matrix(0.05,0,0,0.05,47,0)" xlink:href="#aj"/><use transform="matrix(0.05,0,0,0.05,57,0)" xlink:href="#aY"/><use transform="matrix(0.05,0,0,0.05,67,0)" xlink:href="#as"/><use transform="matrix(0.05,0,0,0.05,72.95,0)" xlink:href="#aI"/><use transform="matrix(0.05,0,0,0.05,81.95,0)" xlink:href="#ab"/><use transform="matrix(0.05,0,0,0.05,91.95,0)" xlink:href="#ab"/><use transform="matrix(0.05,0,0,0.05,101.95,0)" xlink:href="#ak"/><use transform="matrix(0.05,0,0,0.05,111.95,0)" xlink:href="#aZ"/><use transform="matrix(0.05,0,0,0.05,123.95,0)" xlink:href="#af"/><use transform="matrix(0.05,0,0,0.05,129.9,0)" xlink:href="#aj"/><use transform="matrix(0.05,0,0,0.05,139.9,0)" xlink:href="#ak"/><use transform="matrix(0.05,0,0,0.05,149.9,0)" xlink:href="#an"/><use transform="matrix(0.05,0,0,0.05,159.9,0)" xlink:href="#ai"/><use transform="matrix(0.05,0,0,0.05,168.9,0)" xlink:href="#ae"/><use transform="matrix(0.05,0,0,0.05,173.9,0)" xlink:href="#aI"/><use transform="matrix(0.05,0,0,0.05,182.9,0)" xlink:href="#ac"/><use transform="matrix(0.05,0,0,0.05,187.9,0)" xlink:href="#ap"/><use transform="matrix(0.05,0,0,0.05,197.9,0)" xlink:href="#ag"/><use transform="matrix(0.05,0,0,0.05,201.85,0)" xlink:href="#aI"/><use transform="matrix(0.05,0,0,0.05,210.85000000000002,0)" xlink:href="#ae"/><use transform="matrix(0.05,0,0,0.05,215.85000000000002,0)" xlink:href="#au"/><use transform="matrix(0.05,0,0,0.05,226.35000000000002,0)" xlink:href="#aZ"/><use transform="matrix(0.05,0,0,0.05,238.35000000000002,0)" xlink:href="#af"/><use transform="matrix(0.05,0,0,0.05,244.29999999999995,0)" xlink:href="#aj"/><use transform="matrix(0.05,0,0,0.05,254.29999999999995,0)" xlink:href="#ak"/><use transform="matrix(0.05,0,0,0.05,264.29999999999995,0)" xlink:href="#an"/><use transform="matrix(0.05,0,0,0.05,274.29999999999995,0)" xlink:href="#ai"/><use transform="matrix(0.05,0,0,0.05,283.29999999999995,0)" xlink:href="#ae"/><use transform="matrix(0.05,0,0,0.05,288.29999999999995,0)" xlink:href="#av"/><use transform="matrix(0.05,0,0,0.05,298.79999999999995,0)" xlink:href="#at"/><use transform="matrix(0.05,0,0,0.05,304.74999999999994,0)" xlink:href="#ac"/><use transform="matrix(0.05,0,0,0.05,309.74999999999994,0)" xlink:href="#ad"/><use transform="matrix(0.05,0,0,0.05,321.74999999999994,0)" xlink:href="#ba"/><use transform="matrix(0.05,0,0,0.05,331.74999999999994,0)" xlink:href="#aj"/><use transform="matrix(0.05,0,0,0.05,341.74999999999994,0)" xlink:href="#aY"/><path fill="#333" d="M-.9 1.25h353.55v1.32H-.9z"/></g><path fill="#333" d="M140-251c81 0 123 46 123 126C263-46 219 4 140 4 59 4 17-45 17-125s42-126 123-126zm0 227c63 0 89-41 89-101s-29-99-89-99c-61 0-89 39-89 99S79-25 140-24" id="bc"/><path fill="#333" d="M101-234c-31-9-42 10-38 44h38v23H63V0H32v-167H5v-23h27c-7-52 17-82 69-68v24" id="bd"/><path fill="#333" d="M24-231v-30h32v30H24zM-9 49c24 4 33-6 33-30v-209h32V24c2 40-23 58-65 49V49" id="be"/><path fill="#333" d="M212-179c-10-28-35-45-73-45-59 0-87 40-87 99 0 60 29 101 89 101 43 0 62-24 78-52l27 14C228-24 195 4 139 4 59 4 22-46 18-125c-6-104 99-153 187-111 19 9 31 26 39 46" id="bf"/><path fill="#333" d="M153-248C145-148 188 4 80 4 36 3 13-21 6-62l32-5c4 25 16 42 43 43 27 0 39-20 39-49v-147H72v-28h81" id="bg"/><g id="G"><use transform="matrix(0.05,0,0,0.05,0,0)" xlink:href="#ah"/><use transform="matrix(0.05,0,0,0.05,10,0)" xlink:href="#ab"/><use transform="matrix(0.05,0,0,0.05,20,0)" xlink:href="#ae"/><use transform="matrix(0.05,0,0,0.05,25,0)" xlink:href="#ad"/><use transform="matrix(0.05,0,0,0.05,37,0)" xlink:href="#Z"/><use transform="matrix(0.05,0,0,0.05,47,0)" xlink:href="#al"/><use transform="matrix(0.05,0,0,0.05,50.95,0)" xlink:href="#ab"/><use transform="matrix(0.05,0,0,0.05,60.95,0)" xlink:href="#aI"/><use transform="matrix(0.05,0,0,0.05,69.95,0)" xlink:href="#bc"/><use transform="matrix(0.05,0,0,0.05,83.95,0)" xlink:href="#bd"/><use transform="matrix(0.05,0,0,0.05,88.95,0)" xlink:href="#aB"/><use transform="matrix(0.05,0,0,0.05,100.95,0)" xlink:href="#bb"/><use transform="matrix(0.05,0,0,0.05,113.9,0)" xlink:href="#Z"/><use transform="matrix(0.05,0,0,0.05,123.9,0)" xlink:href="#ae"/><use transform="matrix(0.05,0,0,0.05,128.9,0)" xlink:href="#ab"/><use transform="matrix(0.05,0,0,0.05,138.9,0)" xlink:href="#as"/><use transform="matrix(0.05,0,0,0.05,144.85,0)" xlink:href="#be"/><use transform="matrix(0.05,0,0,0.05,148.79999999999998,0)" xlink:href="#bb"/><use transform="matrix(0.05,0,0,0.05,161.74999999999997,0)" xlink:href="#Z"/><use transform="matrix(0.05,0,0,0.05,171.74999999999997,0)" xlink:href="#ae"/><use transform="matrix(0.05,0,0,0.05,176.74999999999997,0)" xlink:href="#ab"/><use transform="matrix(0.05,0,0,0.05,186.74999999999997,0)" xlink:href="#bf"/><use transform="matrix(0.05,0,0,0.05,199.69999999999996,0)" xlink:href="#ba"/><use transform="matrix(0.05,0,0,0.05,209.69999999999996,0)" xlink:href="#aj"/><use transform="matrix(0.05,0,0,0.05,219.69999999999996,0)" xlink:href="#aj"/><use transform="matrix(0.05,0,0,0.05,229.69999999999996,0)" xlink:href="#aI"/><use transform="matrix(0.05,0,0,0.05,238.69999999999996,0)" xlink:href="#ab"/><use transform="matrix(0.05,0,0,0.05,248.69999999999996,0)" xlink:href="#af"/><use transform="matrix(0.05,0,0,0.05,254.64999999999998,0)" xlink:href="#ac"/><use transform="matrix(0.05,0,0,0.05,259.65,0)" xlink:href="#bg"/><use transform="matrix(0.05,0,0,0.05,268.65,0)" xlink:href="#bb"/><use transform="matrix(0.05,0,0,0.05,281.59999999999997,0)" xlink:href="#Z"/><use transform="matrix(0.05,0,0,0.05,291.59999999999997,0)" xlink:href="#ae"/><use transform="matrix(0.05,0,0,0.05,296.59999999999997,0)" xlink:href="#ab"/><use transform="matrix(0.05,0,0,0.05,306.59999999999997,0)" xlink:href="#bf"/><use transform="matrix(0.05,0,0,0.05,319.54999999999995,0)" xlink:href="#ba"/><use transform="matrix(0.05,0,0,0.05,329.54999999999995,0)" xlink:href="#aj"/><use transform="matrix(0.05,0,0,0.05,339.54999999999995,0)" xlink:href="#aj"/><use transform="matrix(0.05,0,0,0.05,349.54999999999995,0)" xlink:href="#aI"/><use transform="matrix(0.05,0,0,0.05,358.54999999999995,0)" xlink:href="#ab"/><use transform="matrix(0.05,0,0,0.05,368.54999999999995,0)" xlink:href="#af"/><use transform="matrix(0.05,0,0,0.05,374.49999999999994,0)" xlink:href="#at"/><use transform="matrix(0.05,0,0,0.05,380.44999999999993,0)" xlink:href="#ac"/><use transform="matrix(0.05,0,0,0.05,385.44999999999993,0)" xlink:href="#ap"/><use transform="matrix(0.05,0,0,0.05,395.44999999999993,0)" xlink:href="#ag"/><use transform="matrix(0.05,0,0,0.05,399.3999999999999,0)" xlink:href="#aI"/><use transform="matrix(0.05,0,0,0.05,408.3999999999999,0)" xlink:href="#ae"/><use transform="matrix(0.05,0,0,0.05,413.3999999999999,0)" xlink:href="#au"/><use transform="matrix(0.05,0,0,0.05,423.8999999999999,0)" xlink:href="#ad"/><use transform="matrix(0.05,0,0,0.05,435.8999999999999,0)" xlink:href="#Z"/><use transform="matrix(0.05,0,0,0.05,445.8999999999999,0)" xlink:href="#al"/><use transform="matrix(0.05,0,0,0.05,449.8499999999999,0)" xlink:href="#ab"/><use transform="matrix(0.05,0,0,0.05,459.8499999999999,0)" xlink:href="#av"/></g><g id="H"><use transform="matrix(0.05,0,0,0.05,0,0)" xlink:href="#ah"/><use transform="matrix(0.05,0,0,0.05,10,0)" xlink:href="#ab"/><use transform="matrix(0.05,0,0,0.05,20,0)" xlink:href="#ae"/><use transform="matrix(0.05,0,0,0.05,25,0)" xlink:href="#aZ"/><use transform="matrix(0.05,0,0,0.05,37,0)" xlink:href="#an"/><use transform="matrix(0.05,0,0,0.05,47,0)" xlink:href="#af"/><use transform="matrix(0.05,0,0,0.05,52.95,0)" xlink:href="#ai"/><use transform="matrix(0.05,0,0,0.05,61.95,0)" xlink:href="#ba"/><use transform="matrix(0.05,0,0,0.05,71.95,0)" xlink:href="#Z"/><use transform="matrix(0.05,0,0,0.05,81.95,0)" xlink:href="#aI"/><use transform="matrix(0.05,0,0,0.05,90.95,0)" xlink:href="#ab"/><use transform="matrix(0.05,0,0,0.05,100.95,0)" xlink:href="#bc"/><use transform="matrix(0.05,0,0,0.05,114.95,0)" xlink:href="#bd"/><use transform="matrix(0.05,0,0,0.05,119.95,0)" xlink:href="#aB"/><use transform="matrix(0.05,0,0,0.05,131.95,0)" xlink:href="#bb"/><use transform="matrix(0.05,0,0,0.05,144.89999999999998,0)" xlink:href="#Z"/><use transform="matrix(0.05,0,0,0.05,154.89999999999998,0)" xlink:href="#ae"/><use transform="matrix(0.05,0,0,0.05,159.89999999999998,0)" xlink:href="#ab"/><use transform="matrix(0.05,0,0,0.05,169.89999999999998,0)" xlink:href="#as"/><use transform="matrix(0.05,0,0,0.05,175.84999999999997,0)" xlink:href="#be"/><use transform="matrix(0.05,0,0,0.05,179.79999999999995,0)" xlink:href="#bb"/><use transform="matrix(0.05,0,0,0.05,192.74999999999994,0)" xlink:href="#Z"/><use transform="matrix(0.05,0,0,0.05,202.74999999999994,0)" xlink:href="#ae"/><use transform="matrix(0.05,0,0,0.05,207.74999999999991,0)" xlink:href="#ab"/><use transform="matrix(0.05,0,0,0.05,217.74999999999991,0)" xlink:href="#bf"/><use transform="matrix(0.05,0,0,0.05,230.69999999999993,0)" xlink:href="#ba"/><use transform="matrix(0.05,0,0,0.05,240.69999999999993,0)" xlink:href="#aj"/><use transform="matrix(0.05,0,0,0.05,250.69999999999993,0)" xlink:href="#aj"/><use transform="matrix(0.05,0,0,0.05,260.69999999999993,0)" xlink:href="#aI"/><use transform="matrix(0.05,0,0,0.05,269.69999999999993,0)" xlink:href="#ab"/><use transform="matrix(0.05,0,0,0.05,279.69999999999993,0)" xlink:href="#af"/><use transform="matrix(0.05,0,0,0.05,285.6499999999999,0)" xlink:href="#ac"/><use transform="matrix(0.05,0,0,0.05,290.6499999999999,0)" xlink:href="#bg"/><use transform="matrix(0.05,0,0,0.05,299.6499999999999,0)" xlink:href="#bb"/><use transform="matrix(0.05,0,0,0.05,312.5999999999999,0)" xlink:href="#Z"/><use transform="matrix(0.05,0,0,0.05,322.5999999999999,0)" xlink:href="#ae"/><use transform="matrix(0.05,0,0,0.05,327.5999999999999,0)" xlink:href="#ab"/><use transform="matrix(0.05,0,0,0.05,337.5999999999999,0)" xlink:href="#bf"/><use transform="matrix(0.05,0,0,0.05,350.5499999999999,0)" xlink:href="#ba"/><use transform="matrix(0.05,0,0,0.05,360.5499999999999,0)" xlink:href="#aj"/><use transform="matrix(0.05,0,0,0.05,370.5499999999999,0)" xlink:href="#aj"/><use transform="matrix(0.05,0,0,0.05,380.5499999999999,0)" xlink:href="#aI"/><use transform="matrix(0.05,0,0,0.05,389.5499999999999,0)" xlink:href="#ab"/><use transform="matrix(0.05,0,0,0.05,399.5499999999999,0)" xlink:href="#af"/><use transform="matrix(0.05,0,0,0.05,405.4999999999999,0)" xlink:href="#at"/><use transform="matrix(0.05,0,0,0.05,411.4499999999998,0)" xlink:href="#ac"/><use transform="matrix(0.05,0,0,0.05,416.4499999999998,0)" xlink:href="#ap"/><use transform="matrix(0.05,0,0,0.05,426.4499999999998,0)" xlink:href="#ag"/><use transform="matrix(0.05,0,0,0.05,430.39999999999986,0)" xlink:href="#aI"/><use transform="matrix(0.05,0,0,0.05,439.39999999999986,0)" xlink:href="#ae"/><use transform="matrix(0.05,0,0,0.05,444.39999999999986,0)" xlink:href="#au"/><use transform="matrix(0.05,0,0,0.05,454.89999999999986,0)" xlink:href="#aZ"/><use transform="matrix(0.05,0,0,0.05,466.89999999999986,0)" xlink:href="#an"/><use transform="matrix(0.05,0,0,0.05,476.89999999999986,0)" xlink:href="#af"/><use transform="matrix(0.05,0,0,0.05,482.84999999999985,0)" xlink:href="#ai"/><use transform="matrix(0.05,0,0,0.05,491.84999999999985,0)" xlink:href="#ba"/><use transform="matrix(0.05,0,0,0.05,501.84999999999985,0)" xlink:href="#Z"/><use transform="matrix(0.05,0,0,0.05,511.84999999999985,0)" xlink:href="#aI"/><use transform="matrix(0.05,0,0,0.05,520.8499999999999,0)" xlink:href="#ab"/><use transform="matrix(0.05,0,0,0.05,530.8499999999999,0)" xlink:href="#av"/></g><g id="I"><use transform="matrix(0.05,0,0,0.05,0,0)" xlink:href="#ah"/><use transform="matrix(0.05,0,0,0.05,10,0)" xlink:href="#ab"/><use transform="matrix(0.05,0,0,0.05,20,0)" xlink:href="#ae"/><use transform="matrix(0.05,0,0,0.05,25,0)" xlink:href="#bb"/><use transform="matrix(0.05,0,0,0.05,37.95,0)" xlink:href="#Z"/><use transform="matrix(0.05,0,0,0.05,47.95,0)" xlink:href="#aa"/><use transform="matrix(0.05,0,0,0.05,62.900000000000006,0)" xlink:href="#Z"/><use transform="matrix(0.05,0,0,0.05,72.9,0)" xlink:href="#ah"/><use transform="matrix(0.05,0,0,0.05,82.9,0)" xlink:href="#ab"/><use transform="matrix(0.05,0,0,0.05,92.9,0)" xlink:href="#bc"/><use transform="matrix(0.05,0,0,0.05,106.9,0)" xlink:href="#bd"/><use transform="matrix(0.05,0,0,0.05,111.9,0)" xlink:href="#aB"/><use transform="matrix(0.05,0,0,0.05,123.9,0)" xlink:href="#bb"/><use transform="matrix(0.05,0,0,0.05,136.85,0)" xlink:href="#Z"/><use transform="matrix(0.05,0,0,0.05,146.85,0)" xlink:href="#ae"/><use transform="matrix(0.05,0,0,0.05,151.85,0)" xlink:href="#ab"/><use transform="matrix(0.05,0,0,0.05,161.85,0)" xlink:href="#as"/><use transform="matrix(0.05,0,0,0.05,167.79999999999998,0)" xlink:href="#be"/><use transform="matrix(0.05,0,0,0.05,171.74999999999997,0)" xlink:href="#bb"/><use transform="matrix(0.05,0,0,0.05,184.69999999999996,0)" xlink:href="#Z"/><use transform="matrix(0.05,0,0,0.05,194.69999999999996,0)" xlink:href="#ae"/><use transform="matrix(0.05,0,0,0.05,199.69999999999996,0)" xlink:href="#ab"/><use transform="matrix(0.05,0,0,0.05,209.69999999999996,0)" xlink:href="#bf"/><use transform="matrix(0.05,0,0,0.05,222.64999999999998,0)" xlink:href="#ba"/><use transform="matrix(0.05,0,0,0.05,232.64999999999998,0)" xlink:href="#aj"/><use transform="matrix(0.05,0,0,0.05,242.64999999999998,0)" xlink:href="#aj"/><use transform="matrix(0.05,0,0,0.05,252.64999999999998,0)" xlink:href="#aI"/><use transform="matrix(0.05,0,0,0.05,261.65,0)" xlink:href="#ab"/><use transform="matrix(0.05,0,0,0.05,271.65,0)" xlink:href="#af"/><use transform="matrix(0.05,0,0,0.05,277.59999999999997,0)" xlink:href="#ac"/><use transform="matrix(0.05,0,0,0.05,282.59999999999997,0)" xlink:href="#bg"/><use transform="matrix(0.05,0,0,0.05,291.59999999999997,0)" xlink:href="#bb"/><use transform="matrix(0.05,0,0,0.05,304.54999999999995,0)" xlink:href="#Z"/><use transform="matrix(0.05,0,0,0.05,314.54999999999995,0)" xlink:href="#ae"/><use transform="matrix(0.05,0,0,0.05,319.54999999999995,0)" xlink:href="#ab"/><use transform="matrix(0.05,0,0,0.05,329.54999999999995,0)" xlink:href="#bf"/><use transform="matrix(0.05,0,0,0.05,342.49999999999994,0)" xlink:href="#ba"/><use transform="matrix(0.05,0,0,0.05,352.49999999999994,0)" xlink:href="#aj"/><use transform="matrix(0.05,0,0,0.05,362.49999999999994,0)" xlink:href="#aj"/><use transform="matrix(0.05,0,0,0.05,372.49999999999994,0)" xlink:href="#aI"/><use transform="matrix(0.05,0,0,0.05,381.49999999999994,0)" xlink:href="#ab"/><use transform="matrix(0.05,0,0,0.05,391.49999999999994,0)" xlink:href="#af"/><use transform="matrix(0.05,0,0,0.05,397.44999999999993,0)" xlink:href="#at"/><use transform="matrix(0.05,0,0,0.05,403.3999999999999,0)" xlink:href="#ac"/><use transform="matrix(0.05,0,0,0.05,408.3999999999999,0)" xlink:href="#ap"/><use transform="matrix(0.05,0,0,0.05,418.3999999999999,0)" xlink:href="#ag"/><use transform="matrix(0.05,0,0,0.05,422.3499999999999,0)" xlink:href="#aI"/><use transform="matrix(0.05,0,0,0.05,431.3499999999999,0)" xlink:href="#ae"/><use transform="matrix(0.05,0,0,0.05,436.3499999999999,0)" xlink:href="#au"/><use transform="matrix(0.05,0,0,0.05,446.8499999999999,0)" xlink:href="#bb"/><use transform="matrix(0.05,0,0,0.05,459.79999999999995,0)" xlink:href="#Z"/><use transform="matrix(0.05,0,0,0.05,469.79999999999995,0)" xlink:href="#aa"/><use transform="matrix(0.05,0,0,0.05,484.74999999999983,0)" xlink:href="#Z"/><use transform="matrix(0.05,0,0,0.05,494.74999999999983,0)" xlink:href="#ah"/><use transform="matrix(0.05,0,0,0.05,504.74999999999983,0)" xlink:href="#ab"/><use transform="matrix(0.05,0,0,0.05,514.7499999999999,0)" xlink:href="#av"/></g><path fill="#333" d="M140-251c80 0 125 45 125 126S219 4 139 4C58 4 15-44 15-125s44-126 125-126zm-1 214c52 0 73-35 73-88 0-50-21-86-72-86-52 0-73 35-73 86s22 88 72 88" id="bh"/><path fill="#333" d="M25-224v-37h50v37H25zM25 0v-190h50V0H25" id="bi"/><path fill="#333" d="M135-194c87-1 58 113 63 194h-50c-7-57 23-157-34-157-59 0-34 97-39 157H25l-1-190h47c2 12-1 28 3 38 12-26 28-41 61-42" id="bj"/><g id="J"><use transform="matrix(0.05,0,0,0.05,0,0)" xlink:href="#bh"/><use transform="matrix(0.05,0,0,0.05,14,0)" xlink:href="#aX"/><use transform="matrix(0.05,0,0,0.05,24.950000000000003,0)" xlink:href="#az"/><use transform="matrix(0.05,0,0,0.05,34.95,0)" xlink:href="#R"/><use transform="matrix(0.05,0,0,0.05,41.95,0)" xlink:href="#ax"/><use transform="matrix(0.05,0,0,0.05,51.95,0)" xlink:href="#W"/><use transform="matrix(0.05,0,0,0.05,57.900000000000006,0)" xlink:href="#bi"/><use transform="matrix(0.05,0,0,0.05,62.900000000000006,0)" xlink:href="#S"/><use transform="matrix(0.05,0,0,0.05,73.85000000000001,0)" xlink:href="#bj"/><use transform="matrix(0.05,0,0,0.05,84.80000000000001,0)" xlink:href="#bh"/><use transform="matrix(0.05,0,0,0.05,98.80000000000001,0)" xlink:href="#bj"/><use transform="matrix(0.05,0,0,0.05,109.75,0)" xlink:href="#Q"/><use transform="matrix(0.05,0,0,0.05,121.75,0)" xlink:href="#R"/><use transform="matrix(0.05,0,0,0.05,128.75,0)" xlink:href="#S"/><use transform="matrix(0.05,0,0,0.05,139.7,0)" xlink:href="#T"/><use transform="matrix(0.05,0,0,0.05,150.64999999999998,0)" xlink:href="#U"/><use transform="matrix(0.05,0,0,0.05,161.59999999999997,0)" xlink:href="#V"/><use transform="matrix(0.05,0,0,0.05,171.59999999999997,0)" xlink:href="#W"/></g><g id="K"><use transform="matrix(0.05,0,0,0.05,0,0)" xlink:href="#aY"/><use transform="matrix(0.05,0,0,0.05,10,0)" xlink:href="#af"/><use transform="matrix(0.05,0,0,0.05,15.949999999999998,0)" xlink:href="#aj"/><use transform="matrix(0.05,0,0,0.05,25.950000000000003,0)" xlink:href="#ak"/><use transform="matrix(0.05,0,0,0.05,35.95,0)" xlink:href="#an"/><use transform="matrix(0.05,0,0,0.05,45.95,0)" xlink:href="#ai"/><use transform="matrix(0.05,0,0,0.05,54.95,0)" xlink:href="#ae"/><use transform="matrix(0.05,0,0,0.05,59.95,0)" xlink:href="#ac"/><use transform="matrix(0.05,0,0,0.05,64.95,0)" xlink:href="#aZ"/><use transform="matrix(0.05,0,0,0.05,76.95,0)" xlink:href="#af"/><use transform="matrix(0.05,0,0,0.05,82.9,0)" xlink:href="#aj"/><use transform="matrix(0.05,0,0,0.05,92.9,0)" xlink:href="#ak"/><use transform="matrix(0.05,0,0,0.05,102.9,0)" xlink:href="#an"/><use transform="matrix(0.05,0,0,0.05,112.9,0)" xlink:href="#ai"/><use transform="matrix(0.05,0,0,0.05,121.9,0)" xlink:href="#ae"/></g><g id="L"><use transform="matrix(0.05,0,0,0.05,0,0)" xlink:href="#be"/><use transform="matrix(0.05,0,0,0.05,3.95,0)" xlink:href="#bb"/><use transform="matrix(0.05,0,0,0.05,16.900000000000002,0)" xlink:href="#Z"/><use transform="matrix(0.05,0,0,0.05,26.900000000000002,0)" xlink:href="#ae"/><use transform="matrix(0.05,0,0,0.05,31.900000000000002,0)" xlink:href="#ab"/><use transform="matrix(0.05,0,0,0.05,41.900000000000006,0)" xlink:href="#bf"/><use transform="matrix(0.05,0,0,0.05,54.85,0)" xlink:href="#ba"/><use transform="matrix(0.05,0,0,0.05,64.85000000000001,0)" xlink:href="#aj"/><use transform="matrix(0.05,0,0,0.05,74.85000000000001,0)" xlink:href="#aj"/><use transform="matrix(0.05,0,0,0.05,84.85000000000001,0)" xlink:href="#aI"/><use transform="matrix(0.05,0,0,0.05,93.85000000000001,0)" xlink:href="#ab"/><use transform="matrix(0.05,0,0,0.05,103.85000000000001,0)" xlink:href="#af"/><use transform="matrix(0.05,0,0,0.05,109.80000000000001,0)" xlink:href="#ac"/><use transform="matrix(0.05,0,0,0.05,114.80000000000001,0)" xlink:href="#bg"/><use transform="matrix(0.05,0,0,0.05,123.80000000000001,0)" xlink:href="#bb"/><use transform="matrix(0.05,0,0,0.05,136.75,0)" xlink:href="#Z"/><use transform="matrix(0.05,0,0,0.05,146.75,0)" xlink:href="#ae"/><use transform="matrix(0.05,0,0,0.05,151.75,0)" xlink:href="#ab"/><use transform="matrix(0.05,0,0,0.05,161.75,0)" xlink:href="#bf"/><use transform="matrix(0.05,0,0,0.05,174.7,0)" xlink:href="#ba"/><use transform="matrix(0.05,0,0,0.05,184.7,0)" xlink:href="#aj"/><use transform="matrix(0.05,0,0,0.05,194.7,0)" xlink:href="#aj"/><use transform="matrix(0.05,0,0,0.05,204.7,0)" xlink:href="#aI"/><use transform="matrix(0.05,0,0,0.05,213.69999999999996,0)" xlink:href="#ab"/><use transform="matrix(0.05,0,0,0.05,223.69999999999996,0)" xlink:href="#af"/></g><g id="M"><use transform="matrix(0.05,0,0,0.05,0,0)" xlink:href="#ae"/><use transform="matrix(0.05,0,0,0.05,5,0)" xlink:href="#af"/><use transform="matrix(0.05,0,0,0.05,10.95,0)" xlink:href="#Z"/><use transform="matrix(0.05,0,0,0.05,20.95,0)" xlink:href="#Y"/><use transform="matrix(0.05,0,0,0.05,30.950000000000003,0)" xlink:href="#aI"/><use transform="matrix(0.05,0,0,0.05,39.95,0)" xlink:href="#Z"/><use transform="matrix(0.05,0,0,0.05,49.95,0)" xlink:href="#ai"/><use transform="matrix(0.05,0,0,0.05,58.95,0)" xlink:href="#ae"/><use transform="matrix(0.05,0,0,0.05,63.95,0)" xlink:href="#ag"/><use transform="matrix(0.05,0,0,0.05,67.9,0)" xlink:href="#aj"/><use transform="matrix(0.05,0,0,0.05,77.9,0)" xlink:href="#Y"/><use transform="matrix(0.05,0,0,0.05,87.9,0)" xlink:href="#am"/><use transform="matrix(0.05,0,0,0.05,101.9,0)" xlink:href="#an"/><use transform="matrix(0.05,0,0,0.05,111.9,0)" xlink:href="#Z"/><use transform="matrix(0.05,0,0,0.05,121.9,0)" xlink:href="#Y"/><use transform="matrix(0.05,0,0,0.05,131.9,0)" xlink:href="#ae"/><use transform="matrix(0.05,0,0,0.05,136.9,0)" xlink:href="#ag"/><use transform="matrix(0.05,0,0,0.05,140.85,0)" xlink:href="#ae"/><use transform="matrix(0.05,0,0,0.05,145.85,0)" xlink:href="#ao"/><use transform="matrix(0.05,0,0,0.05,154.85,0)" xlink:href="#ac"/><use transform="matrix(0.05,0,0,0.05,159.85,0)" xlink:href="#ag"/><use transform="matrix(0.05,0,0,0.05,163.79999999999998,0)" xlink:href="#Y"/><use transform="matrix(0.05,0,0,0.05,173.79999999999998,0)" xlink:href="#ae"/></g><path d="M27 0v-27h64v-190l-56 39v-29l58-41h29v221h61V0H27" id="bk"/><use transform="matrix(0.05,0,0,0.05,0,0)" xlink:href="#bk" id="N"/><path d="M101-251c68 0 85 55 85 127S166 4 100 4C33 4 14-52 14-124c0-73 17-127 87-127zm-1 229c47 0 54-49 54-102s-4-102-53-102c-51 0-55 48-55 102 0 53 5 102 54 102" id="bl"/><path d="M33 0v-38h34V0H33" id="bm"/><path d="M80-196l47-18 7 23-49 13 32 44-20 13-27-46-27 45-21-12 33-44-49-13 8-23 47 19-2-53h23" id="bn"/><g id="O"><use transform="matrix(0.05,0,0,0.05,0,0)" xlink:href="#bl"/><use transform="matrix(0.05,0,0,0.05,10,0)" xlink:href="#bm"/><use transform="matrix(0.05,0,0,0.05,15,0)" xlink:href="#bm"/><use transform="matrix(0.05,0,0,0.05,20,0)" xlink:href="#bn"/></g><g id="P"><use transform="matrix(0.04938271604938272,0,0,0.04938271604938272,0,0)" xlink:href="#aw"/><use transform="matrix(0.04938271604938272,0,0,0.04938271604938272,10.814814814814815,0)" xlink:href="#ax"/><use transform="matrix(0.04938271604938272,0,0,0.04938271604938272,20.69135802469136,0)" xlink:href="#ay"/></g></defs></g></svg>